<svg width="58" height="88" viewBox="0 0 58 88" fill="none" xmlns="http://www.w3.org/2000/svg">
<path d="M19.6432 35.0415C22.0258 35.0415 23.9638 33.0758 23.9638 30.6607C23.9638 28.2456 22.026 26.28 19.6432 26.28C17.2604 26.28 15.3225 28.2456 15.3225 30.6607C15.3225 33.0758 17.2606 35.0415 19.6432 35.0415ZM19.6432 29.2051C20.413 29.2051 21.0381 29.858 21.0381 30.6607C21.0381 31.4635 20.413 32.1163 19.6432 32.1163C18.8734 32.1163 18.2482 31.4635 18.2482 30.6607C18.2482 29.8581 18.8734 29.2051 19.6432 29.2051Z" fill="#FB3523"/>
<path d="M55.8462 18.6136C55.8462 17.7502 55.6641 16.894 55.3227 16.1092C56.6052 14.9497 57.3606 13.2837 57.3606 11.4893C57.3589 7.82918 54.0528 4.91799 50.5413 5.3427C49.6875 2.9597 47.4299 1.26503 44.8168 1.26503C41.7428 1.26503 39.194 3.591 38.7814 6.59831C38.3111 6.68008 37.897 6.8946 37.47 7.07929C35.2345 2.79843 29.3107 1.3621 29.0454 1.30431C28.4382 1.15796 27.8131 1.42555 27.4844 1.94996C27.3309 2.19262 23.7443 7.97535 25.6697 12.7557C26.1108 13.851 26.8235 14.8569 27.7879 15.7488C27.8692 15.8238 27.9829 15.8083 28.0744 15.862C28.0146 16.055 27.8968 16.2219 27.8594 16.4232C26.6845 16.5437 25.8187 16.9312 25.1389 17.429C24.9076 15.83 24.4776 14.2068 23.8031 12.5669C23.4922 11.8213 22.635 11.461 21.8919 11.7713C21.1453 12.0781 20.7881 12.9343 21.0952 13.6799C21.9431 15.7356 22.3605 17.7426 22.3902 19.6747C21.4006 18.9737 20.2046 18.5565 18.918 18.5565C15.844 18.5565 13.2952 20.8825 12.8845 23.8898C11.6353 24.1072 10.5609 24.7636 9.69351 25.6289C7.9612 25.8585 6.24213 25.4075 4.8432 24.3036C2.65158 22.577 2.24805 19.3484 3.94292 17.1079C4.5484 16.3052 5.42184 15.7951 6.4006 15.6667C7.36877 15.556 8.32427 15.813 9.09578 16.4194C10.2765 17.354 10.4924 19.0949 9.57987 20.3009C9.27807 20.7005 8.8475 20.9537 8.3636 21.0179C7.88141 21.0678 7.41339 20.9465 7.02934 20.6433C6.49703 20.2223 6.39889 19.4375 6.8115 18.8916C7.29918 18.2495 7.1723 17.3327 6.52748 16.8437C5.88096 16.3514 4.96649 16.4799 4.47882 17.1291C3.11241 18.9342 3.44295 21.5386 5.21478 22.9333C6.22039 23.7289 7.4618 24.0749 8.73707 23.9144C10.007 23.7503 11.1376 23.0939 11.9163 22.0628C13.1354 20.4497 13.3463 18.3741 12.6812 16.5928C14.3589 11.9089 11.5571 6.63004 11.4341 6.40173C11.0966 5.78818 10.3767 5.50624 9.70164 5.70962C9.45525 5.78818 3.6449 7.69662 1.78552 12.452C1.36932 13.5186 1.16207 14.703 1.16926 15.9732C1.16926 15.9974 1.18193 16.0172 1.18325 16.041C-0.91023 19.4911 -0.184291 24.0671 3.03204 26.6007C3.08121 26.6394 3.13756 26.6656 3.18748 26.7032V31.4344C3.18748 31.6663 3.24099 31.8911 3.34651 32.098L21.1523 67.0769L19.1627 86.3875C19.1198 86.7977 19.2538 87.208 19.5324 87.5149C19.8092 87.8217 20.204 88 20.6183 88H37.9847C38.399 88 38.7939 87.8216 39.0707 87.5149C39.3494 87.208 39.4833 86.7978 39.4404 86.3875L37.9565 72.0038C40.3617 73.5086 43.3543 73.8931 43.7932 73.9407C43.8486 73.9479 43.9021 73.9515 43.9558 73.9515C44.6918 73.9515 45.3258 73.3986 45.4079 72.6494C45.4971 71.8468 44.9185 71.126 44.1146 71.0369C43.0805 70.9226 40.0994 70.2913 38.6365 68.8607C43.6109 68.504 46.9348 67.1768 48.3156 64.9792C49.1658 63.6271 49.2176 62.0004 48.4603 60.4022C47.5887 58.5722 45.749 57.5696 43.5092 57.7694C42.9725 57.8123 42.4135 57.9479 41.8514 58.1248L53.7546 33.9606C53.7557 33.9583 53.7566 33.9564 53.7578 33.9542L53.7581 33.9534C53.7602 33.9494 53.7595 33.9447 53.7616 33.9408C53.8378 33.7829 53.8896 33.6103 53.9047 33.4254C53.9051 33.4194 53.9022 33.4143 53.9026 33.4082C53.9117 33.2747 53.8824 33.1465 53.8557 33.0175C53.8438 32.9597 53.8504 32.8968 53.8315 32.8415C53.796 32.7358 53.7264 32.6466 53.6676 32.5513C53.6282 32.488 53.6056 32.4145 53.5571 32.3583C53.505 32.2971 53.4284 32.2584 53.3656 32.2057C53.282 32.1362 53.2071 32.0578 53.1088 32.008C53.1022 32.0046 53.0986 31.9981 53.0918 31.9947C52.9885 31.9451 52.8802 31.9368 52.7732 31.912C52.7015 31.895 52.6387 31.858 52.5631 31.852C52.0397 31.8091 51.5272 31.7056 51.0395 31.5451C48.4139 30.6781 46.9724 27.7851 47.8245 25.088C48.1354 24.1106 48.7997 23.3186 49.6964 22.862C50.559 22.4231 51.5378 22.3447 52.4594 22.648C53.8669 23.1118 54.6386 24.6671 54.1795 26.1191C54.024 26.6114 53.6918 27.0074 53.2436 27.2357C52.8168 27.4569 52.3327 27.4926 51.8825 27.3428C51.2538 27.1358 50.909 26.4331 51.1163 25.7767C51.3593 25.0097 50.9323 24.1891 50.1625 23.9431C49.3944 23.7004 48.5694 24.1285 48.3264 24.8992C47.6405 27.0682 48.821 29.4084 50.9627 30.1184C52.1648 30.5144 53.4473 30.4145 54.5779 29.8366C55.7265 29.2516 56.5766 28.2421 56.9696 26.997C57.6715 24.7823 56.9471 22.4376 55.3199 20.9926C55.6323 20.2406 55.8462 19.4515 55.8462 18.6136ZM9.38907 8.99207C9.83042 10.1287 10.3576 11.9284 10.2808 13.7252C9.00483 12.9321 7.52458 12.5742 6.0294 12.77C5.59959 12.8246 5.18263 12.9236 4.78023 13.0577C5.82593 10.9946 7.9994 9.64792 9.38907 8.99207ZM28.3845 11.6642C27.3914 9.19904 28.6613 6.02763 29.44 4.46515C31.0672 5.01808 34.1196 6.34885 35.1038 8.79605C35.105 8.7987 35.1072 8.80002 35.1084 8.80266C34.4006 9.68286 33.9942 10.7806 33.8505 11.9648C33.718 11.9558 33.5973 11.9069 33.4625 11.9069C31.9616 11.9069 30.6253 12.4975 29.607 13.4166C29.0594 12.8686 28.6345 12.2853 28.3845 11.6642ZM29.1757 19.3163C29.5972 19.3198 30.0206 19.0309 30.3152 18.7169C30.6134 18.403 30.7456 17.8286 30.6937 17.4005C30.6937 15.9841 31.9352 14.8318 33.4623 14.8318C34.918 14.8318 36.1308 15.8878 36.2237 17.2399C36.2541 17.7073 36.5094 18.1318 36.9095 18.3815C37.3078 18.6311 37.8043 18.6668 38.2385 18.4922C39.9871 17.7679 42.1252 19.063 42.1269 20.8395C42.1269 21.792 41.5607 22.6659 40.6479 23.1156C40.2478 23.3118 39.9585 23.6829 39.8657 24.1179C39.7728 24.5568 39.8834 25.0134 40.1693 25.3558C40.5445 25.8088 40.7427 26.3476 40.7427 26.9183C40.7427 28.3346 39.5013 29.4869 37.9741 29.4869C37.2561 29.4869 36.5756 29.2337 36.0576 28.7699C35.7523 28.4951 35.3468 28.3703 34.9412 28.4024C34.5339 28.4417 34.1625 28.6485 33.9159 28.9733C33.3339 29.7349 32.3092 30.0933 31.335 30.0049C31.4138 29.6063 31.4636 29.198 31.4636 28.7806C31.4636 25.3717 28.6027 22.6089 25.3696 22.621C25.4685 22.3732 25.5808 22.1393 25.6676 21.8705C26.1447 20.408 26.5323 19.1914 29.1757 19.3163ZM14.1758 26.7366C14.1847 26.7366 14.1955 26.7366 14.2044 26.7366C14.6508 26.7831 15.067 26.6118 15.3707 26.2977C15.6761 25.9839 15.8227 25.5522 15.7745 25.1169C15.7601 24.9957 15.7531 24.8709 15.7531 24.7458C15.7531 22.9443 17.173 21.4817 18.9182 21.4817C20.5811 21.4817 21.9689 22.8195 22.0761 24.5319C22.1065 25.0098 22.369 25.4415 22.778 25.6878C23.1887 25.941 23.6925 25.9695 24.1319 25.7733C26.1216 24.8922 28.5401 26.5368 28.5382 28.7806C28.5382 30.0113 27.8757 31.1244 26.8093 31.6881C26.4272 31.8879 26.1537 32.2482 26.0628 32.6691C25.9699 33.09 26.07 33.5289 26.3324 33.8713C26.7844 34.4563 27.0236 35.1592 27.0236 35.9047C27.0236 37.7063 25.6037 39.1688 23.8568 39.1688C23.0548 39.1688 22.2903 38.8584 21.7045 38.2985C21.3936 38.0024 20.9721 37.8632 20.5525 37.8953C20.1291 37.9346 19.7434 38.1593 19.497 38.5053C18.8915 39.3579 17.9627 39.843 16.9446 39.843C15.1977 39.843 13.7778 38.3804 13.7778 36.5789C13.7778 36.0866 13.8814 35.6156 14.0832 35.1805C14.2636 34.7881 14.2619 34.3351 14.0779 33.9462C13.8939 33.5538 13.5475 33.2649 13.1294 33.1542C11.7272 32.7832 10.7485 31.4811 10.7485 29.99C10.7483 28.1956 12.1557 26.7366 14.1758 26.7366ZM22.2402 85.075L24.1085 66.9488C24.137 66.6705 24.0852 66.3887 23.9566 66.1355L15.0964 48.7311L43.5288 48.0992L36.7032 61.9564C36.5353 62.193 36.3878 62.4487 36.2369 62.7041C34.5233 59.6763 31.5799 57.8782 29.0492 57.627C26.8112 57.3915 24.9518 58.3584 24.0516 60.1741C23.2657 61.7581 23.287 63.3812 24.1159 64.7547C25.4573 66.9772 28.7563 68.3578 33.7251 68.8036C32.2498 70.2056 29.3188 70.7765 28.2024 70.8836C27.3986 70.9621 26.8092 71.672 26.8842 72.4745C26.9557 73.2344 27.5914 73.8017 28.3382 73.8017C28.3828 73.8017 28.4293 73.7981 28.4757 73.7946C28.9539 73.7487 32.454 73.3404 34.9647 71.5201L36.3632 85.0748H22.2402V85.075ZM34.4537 65.9321C28.4596 65.4932 26.9538 63.7952 26.6216 63.2458C26.4268 62.9212 26.2197 62.386 26.6734 61.4728C26.9895 60.8377 27.5682 60.5167 28.3987 60.5167C28.5148 60.5167 28.6345 60.5239 28.7595 60.538C30.8976 60.7486 33.6089 62.8249 34.4537 65.9321ZM43.7468 60.6808C43.8505 60.6736 43.9505 60.6664 44.0469 60.6664C44.9096 60.6664 45.5045 60.9982 45.8171 61.6547C46.2529 62.5751 46.0368 63.1067 45.8367 63.4277C45.4945 63.9723 43.9607 65.6354 37.9864 65.972L39.1308 63.6486C40.3855 61.9109 42.211 60.8062 43.7468 60.6808ZM48.364 20.258C46.7654 21.0749 45.583 22.4769 45.0346 24.2107C43.7022 28.4203 45.9848 32.958 50.1232 34.3209C50.1795 34.3396 50.2413 34.3383 50.2979 34.3558L44.9826 45.1468L13.6229 45.8369L6.11298 31.0851V28.1911C6.75269 28.3875 7.41018 28.5042 8.07712 28.5608C7.96517 29.029 7.82241 29.4873 7.82241 29.99C7.82241 32.2767 9.05834 34.3317 10.9606 35.4018C10.8875 35.7871 10.8517 36.1795 10.8517 36.5791C10.8517 39.9896 13.5845 42.7686 16.9442 42.7686C18.3927 42.7686 19.7859 42.237 20.8736 41.3024C21.7756 41.816 22.799 42.0944 23.8564 42.0944C27.2161 42.0944 29.9489 39.3154 29.9489 35.9049C29.9489 35.0415 29.7668 34.1853 29.4238 33.4005C29.6462 33.1995 29.8303 32.9654 30.0198 32.7363C30.55 32.891 31.0975 32.9867 31.6564 32.9867C32.9763 32.9867 34.2499 32.5373 35.2555 31.7453C36.0824 32.1806 37.013 32.4125 37.9739 32.4125C38.7447 32.4125 39.4784 32.2604 40.1493 31.9915L41.0515 32.9512L42.0053 34.2391C43.3412 35.9693 43.0198 38.5664 41.2873 40.029C40.6782 40.5463 39.9405 40.7961 39.1743 40.7068C38.4671 40.6318 37.8329 40.2751 37.3917 39.7044C36.7059 38.8197 36.8791 37.4819 37.7775 36.722C38.115 36.4331 38.5562 36.3404 38.9474 36.458C39.7208 36.7077 40.5388 36.2654 40.7782 35.4983C41.0193 34.7243 40.5871 33.9073 39.8155 33.6683C38.4616 33.2473 36.9952 33.5576 35.8861 34.4924C33.8089 36.2475 33.4462 39.3905 35.077 41.4952C36.0111 42.701 37.3579 43.4537 38.8672 43.6106C39.0673 43.6319 39.2655 43.6427 39.4638 43.6427C40.8089 43.6427 42.1091 43.1647 43.1771 42.2621C46.0884 39.8005 46.6011 35.4018 44.1702 32.2589L42.4549 30.2682C43.2038 29.3379 43.6684 28.1848 43.6684 26.9185C43.6684 26.2086 43.5237 25.5057 43.2486 24.8529C44.3864 23.8326 45.0526 22.3914 45.0526 20.8395C45.0526 19.435 44.4679 18.1694 43.5551 17.1965C44.1576 17.52 44.8124 17.7502 45.5402 17.7502C47.9228 17.7502 49.8609 15.7845 49.8609 13.3694C49.8609 10.9543 47.9228 8.98848 45.5402 8.98848C43.1576 8.98848 41.2196 10.9541 41.2196 13.3692C41.2196 14.4398 41.6447 15.3876 42.2761 16.1494C41.2534 15.5506 40.0343 15.2473 38.7547 15.3812C38.3317 14.3525 37.594 13.4812 36.6631 12.8667C36.6603 12.8108 36.6454 12.7536 36.6454 12.6985C36.6454 10.9041 38.0528 9.44492 40.0729 9.44492C40.0818 9.44492 40.0926 9.44492 40.1015 9.44492C40.5337 9.48419 40.966 9.32009 41.2678 9.00605C41.5732 8.69219 41.7197 8.2605 41.6715 7.82522C41.6571 7.70398 41.6502 7.57916 41.6502 7.45414C41.6502 5.65259 43.0701 4.19001 44.8169 4.19001C46.4798 4.19001 47.8659 5.52776 47.973 7.24018C48.0034 7.71814 48.2659 8.14984 48.6749 8.39609C49.0839 8.64574 49.5876 8.67784 50.0288 8.48163C51.965 7.62183 54.4351 9.23794 54.4351 11.4889C54.4351 12.7196 53.7725 13.8329 52.7062 14.3964C52.324 14.5962 52.0506 14.9565 51.9578 15.3774C51.8666 15.7983 51.9667 16.2408 52.231 16.5796C52.6811 17.1646 52.9205 17.8675 52.9205 18.613C52.9205 19.0005 52.8467 19.3727 52.7223 19.7259C51.2521 19.4039 49.7291 19.5625 48.364 20.258ZM44.1453 13.3694C44.1453 12.5667 44.7704 11.9138 45.5402 11.9138C46.31 11.9138 46.9352 12.5667 46.9352 13.3694C46.9352 14.1722 46.31 14.825 45.5402 14.825C44.7704 14.8248 44.1453 14.172 44.1453 13.3694Z" fill="#FB3523"/>
<path d="M18.2125 16.5409C18.5018 16.8904 18.9216 17.076 19.3431 17.076C19.67 17.076 19.9987 16.9654 20.2719 16.7442C20.8954 16.2306 20.9863 15.3102 20.4737 14.6859L17.0872 10.5761L16.2173 9.22757C14.9939 7.42242 15.4797 4.8504 17.3014 3.49829C17.9426 3.02373 18.6981 2.80977 19.4554 2.95952C20.1556 3.07717 20.7647 3.46958 21.1665 4.06538C21.7953 4.99656 21.5398 6.31996 20.5968 7.01925C20.2396 7.28684 19.7912 7.36181 19.4108 7.20828C18.6446 6.92294 17.8086 7.29741 17.5211 8.05372C17.2318 8.80645 17.6104 9.65189 18.3641 9.94082C19.6859 10.4439 21.1754 10.2297 22.3418 9.36655C24.5226 7.74685 25.0835 4.63606 23.5921 2.43152C22.7366 1.16873 21.4434 0.33386 19.9484 0.0770351C18.4176 -0.176202 16.8531 0.198271 15.5562 1.15079C12.4948 3.42332 11.7036 7.78274 13.9219 11.0576L18.2125 16.5409Z" fill="#FB3523"/>
<path d="M34.1234 26.3977C36.3704 26.3977 38.1975 24.6247 38.1975 22.445C38.1975 20.2688 36.3702 18.4958 34.1234 18.4958C31.8764 18.4958 30.0493 20.2688 30.0493 22.445C30.0491 24.6247 31.8764 26.3977 34.1234 26.3977ZM34.1234 21.4211C34.7557 21.4211 35.272 21.8813 35.272 22.445C35.272 23.0123 34.7557 23.4725 34.1234 23.4725C33.491 23.4725 32.9748 23.0123 32.9748 22.445C32.9748 21.8813 33.491 21.4211 34.1234 21.4211Z" fill="#FB3523"/>
</svg>
