<svg width="88" height="88" viewBox="0 0 88 88" fill="none" xmlns="http://www.w3.org/2000/svg">
<path d="M80.5914 25.6084C80.7389 25.8815 80.9491 26.1158 81.2047 26.292C81.4603 26.4681 81.7541 26.5812 82.0618 26.6218C82.1612 26.6218 82.2407 26.6417 82.3201 26.6417C82.5909 26.6417 82.8589 26.5872 83.1082 26.4814C83.3574 26.3755 83.5827 26.2206 83.7707 26.0257C85.1616 24.5513 86.2484 22.8174 86.9692 20.923C87.69 19.0286 88.0306 17.0108 87.9715 14.9848C87.9125 12.9588 87.455 10.9642 86.6251 9.11504C85.7952 7.26584 84.6092 5.5982 83.1349 4.20734C81.6605 2.81648 79.9266 1.72964 78.0322 1.00886C76.1378 0.288092 74.12 -0.0524952 72.094 0.00655095C70.068 0.0655971 68.0734 0.523119 66.2242 1.35299C64.375 2.18287 62.7074 3.36885 61.3165 4.84321C61.1029 5.06745 60.9463 5.33972 60.8598 5.63711C60.7734 5.9345 60.7596 6.24831 60.8198 6.55212C60.8752 6.86025 61.0033 7.15074 61.1933 7.39953C61.3834 7.64833 61.63 7.84828 61.9127 7.98283C65.3092 9.60276 68.4709 11.6749 71.3116 14.1428L69.0265 16.43C62.0208 10.5232 53.1525 7.2835 43.989 7.2835C34.8256 7.2835 25.9572 10.5232 18.9516 16.43L16.6664 14.1428C19.5072 11.6749 22.6689 9.60276 26.0654 7.98283C26.3481 7.84828 26.5947 7.64833 26.7847 7.39953C26.9748 7.15074 27.1029 6.86025 27.1583 6.55212C27.2184 6.24831 27.2047 5.9345 27.1182 5.63711C27.0318 5.33972 26.8752 5.06745 26.6615 4.84321C25.2707 3.36885 23.603 2.18287 21.7538 1.35299C19.9046 0.523119 17.9101 0.0655971 15.8841 0.00655095C13.858 -0.0524952 11.8402 0.288092 9.94585 1.00886C8.05145 1.72964 6.31758 2.81648 4.84321 4.20734C3.36885 5.5982 2.18287 7.26584 1.35299 9.11504C0.523119 10.9642 0.0655971 12.9588 0.00655097 14.9848C-0.0524951 17.0108 0.28809 19.0286 1.00886 20.923C1.72964 22.8174 2.81648 24.5513 4.20734 26.0257C4.39533 26.2206 4.62067 26.3755 4.86991 26.4814C5.11914 26.5872 5.38715 26.6417 5.65792 26.6417C5.7374 26.6417 5.81689 26.6218 5.91624 26.6218C6.22401 26.5812 6.51776 26.4681 6.77337 26.292C7.02898 26.1158 7.23917 25.8815 7.3867 25.6084C9.13911 22.4398 11.2894 19.5083 13.7851 16.885L16.0465 19.1463C12.2818 23.0097 9.36231 27.6143 7.47359 32.6671C5.58486 37.7199 4.76825 43.1105 5.07569 48.496C5.38313 53.8816 6.80789 59.1442 9.25937 63.9492C11.7108 68.7543 15.1354 72.9967 19.3152 76.4065L12.6306 84.7524C12.4658 84.956 12.3428 85.1901 12.2687 85.4415C12.1947 85.6928 12.1711 85.9562 12.1993 86.2167C12.2275 86.4772 12.3069 86.7295 12.4329 86.9592C12.559 87.1888 12.7293 87.3913 12.9339 87.5549C13.1385 87.7185 13.3734 87.8401 13.6252 87.9125C13.877 87.985 14.1406 88.007 14.4009 87.9772C14.6612 87.9474 14.913 87.8664 15.1419 87.7389C15.3708 87.6114 15.5722 87.4399 15.7345 87.2342L22.5284 78.7613C28.8914 82.9858 36.3593 85.2391 43.997 85.2391C51.6347 85.2391 59.1026 82.9858 65.4656 78.7613L72.2515 87.2442C72.4139 87.4498 72.6153 87.6213 72.8441 87.7488C73.073 87.8763 73.3248 87.9573 73.5851 87.9871C73.8454 88.0169 74.109 87.9949 74.3608 87.9225C74.6126 87.85 74.8475 87.7285 75.0521 87.5648C75.2568 87.4012 75.427 87.1988 75.5531 86.9691C75.6791 86.7394 75.7586 86.4871 75.7867 86.2266C75.8149 85.9662 75.7913 85.7027 75.7173 85.4514C75.6433 85.2001 75.5203 84.9659 75.3554 84.7623L68.6708 76.4165C72.8506 73.0066 76.2752 68.7642 78.7266 63.9592C81.1781 59.1541 82.6029 53.8915 82.9103 48.506C83.2178 43.1204 82.4012 37.7299 80.5124 32.677C78.6237 27.6242 75.7042 23.0197 71.9396 19.1563L74.1929 16.885C76.6887 19.5083 78.8389 22.4398 80.5914 25.6084V25.6084ZM43.989 81.265C37.0661 81.265 30.2987 79.2121 24.5426 75.366C18.7864 71.5198 14.3 66.0531 11.6507 59.6572C9.00146 53.2613 8.30829 46.2234 9.65888 39.4336C11.0095 32.6437 14.3432 26.4068 19.2384 21.5116C24.1336 16.6164 30.3705 13.2827 37.1603 11.9321C43.9502 10.5815 50.9881 11.2747 57.384 13.924C63.7799 16.5732 69.2466 21.0596 73.0927 26.8158C76.9389 32.572 78.9918 39.3394 78.9918 46.2623C78.9812 55.5423 75.2901 64.4393 68.7281 71.0013C62.1661 77.5633 53.2691 81.2545 43.989 81.265V81.265ZM45.9761 20.43V45.6503C45.9638 45.7537 45.9432 45.8561 45.9145 45.9563C45.9432 46.0564 45.9638 46.1588 45.9761 46.2623C45.9761 46.7893 45.7668 47.2947 45.3941 47.6674C45.0215 48.04 44.516 48.2494 43.989 48.2494H25.4931C24.9661 48.2494 24.4607 48.04 24.088 47.6674C23.7154 47.2947 23.506 46.7893 23.506 46.2623C23.506 45.7353 23.7154 45.2298 24.088 44.8572C24.4607 44.4845 24.9661 44.2752 25.4931 44.2752H42.0019V20.43C42.0019 19.903 42.2113 19.3976 42.5839 19.0249C42.9566 18.6523 43.462 18.4429 43.989 18.4429C44.516 18.4429 45.0215 18.6523 45.3941 19.0249C45.7668 19.3976 45.9761 19.903 45.9761 20.43V20.43Z" fill="#FB3523"/>
</svg>
