<svg width="88" height="88" viewBox="0 0 88 88" fill="none" xmlns="http://www.w3.org/2000/svg">
<path d="M33 0C37.9197 0 42.2307 2.76077 44.4375 6.8125C46.6319 3.90418 50.0946 2 54 2C60.6037 2 66 7.3963 66 14C66 17.06 64.8111 19.8707 62.9062 22H86C86.5304 22.0001 87.0391 22.2108 87.4142 22.5858C87.7892 22.9609 87.9999 23.4696 88 24V42C87.9999 42.5304 87.7892 43.0391 87.4142 43.4142C87.0391 43.7892 86.5304 43.9999 86 44H81V86C80.9999 86.5304 80.7892 87.0391 80.4142 87.4142C80.0391 87.7892 79.5304 87.9999 79 88H9C8.46958 87.9999 7.96091 87.7892 7.58584 87.4142C7.21078 87.0391 7.00005 86.5304 7 86V44H2C1.46958 43.9999 0.960906 43.7892 0.585845 43.4142C0.210784 43.0391 5.30337e-05 42.5304 0 42V24C5.30337e-05 23.4696 0.210784 22.9609 0.585845 22.5858C0.960906 22.2108 1.46958 22.0001 2 22H23.625C21.3799 19.6611 20 16.4796 20 13C20 5.84401 25.844 0 33 0ZM33 4C28.0058 4 24 8.00579 24 13C24 17.9942 28.0058 22 33 22H42V14V13C42 8.00579 37.9942 4 33 4ZM54 6C49.5581 6 46 9.5581 46 14V22H54C58.4419 22 62 18.4419 62 14C62 9.5581 58.4419 6 54 6ZM84 26H54V40H84V26ZM50 26H38V40H50V26ZM34 26H4V40H34V26ZM77 44H54V84H77V44ZM50 44H38V84H50V44ZM34 44H11V84H34V44Z" fill="#FB3523"/>
</svg>
