<svg width="495" height="487" viewBox="0 0 495 487" fill="none" xmlns="http://www.w3.org/2000/svg">
<path opacity="0.5" d="M402.076 121.274L402.337 121.238C394.17 96.2466 376.581 96.6407 371.879 97.2229C369.726 96.5024 367.47 96.1359 365.2 96.1374H364.787V90.437L365.43 90.1883C365.369 89.2516 365.182 88.3274 364.872 87.4412C369.853 85.4179 374.154 82.0187 377.273 77.6413C380.551 74.2081 383.02 70.0869 384.501 65.5784C385.982 61.0699 386.437 56.2878 385.834 51.581C385.23 46.8742 383.583 42.3614 381.013 38.3718C378.442 34.3823 375.013 31.0166 370.975 28.5204C371.12 28.3579 371.256 28.1879 371.382 28.011C372.396 27.2724 373.158 26.2393 373.563 25.0524C373.969 23.8654 373.999 22.5824 373.649 21.378C373.299 20.1735 372.586 19.1063 371.607 18.3215C370.628 17.5367 369.431 17.0725 368.178 16.9922C369.246 14.4763 369.438 11.6751 368.724 9.03705C368.01 6.39904 366.431 4.07683 364.24 2.44226C362.049 0.807689 359.372 -0.0447037 356.639 0.0215667C353.905 0.0878372 351.273 1.06894 349.164 2.80777C351.025 1.81888 353.11 1.32811 355.217 1.38319C357.324 1.43827 359.38 2.03732 361.187 3.1221C362.993 4.20687 364.488 5.74046 365.526 7.57372C366.565 9.40698 367.11 11.4775 367.111 13.584C367.111 13.7175 367.111 13.8509 367.111 13.9843C367.075 12.2092 366.653 10.4632 365.873 8.86798C365.093 7.27279 363.975 5.86681 362.595 4.7481C361.216 3.62938 359.609 2.82486 357.887 2.39062C356.165 1.95639 354.368 1.90289 352.623 2.23386C350.878 2.56484 349.226 3.27232 347.783 4.30697C346.339 5.34161 345.139 6.67853 344.265 8.22449C343.392 9.77045 342.866 11.4882 342.725 13.2581C342.584 15.0279 342.831 16.8072 343.449 18.4719C342.517 18.6743 341.645 19.092 340.903 19.6916C340.162 20.2913 339.571 21.0561 339.178 21.925C338.785 22.7938 338.602 23.7425 338.642 24.6951C338.681 25.6477 338.944 26.5777 339.408 27.4107C334.988 29.7314 331.174 33.0572 328.274 37.1202C325.374 41.1832 323.47 45.8699 322.713 50.8031C321.956 55.7363 322.369 60.7782 323.918 65.5228C325.466 70.2675 328.108 74.5825 331.63 78.1204C334.605 82.1132 338.581 85.2509 343.158 87.2168V96.1374C340.772 96.1616 338.409 96.5922 336.168 97.4109C336.168 97.4109 314.005 92.232 304.528 121.231C300.518 131.856 297.387 147.854 296.447 171.796C296.447 171.796 298.224 190.692 326.94 172.821L328.251 188.83H328.481V194.252H328.19L328.421 194.707V194.852C305.214 214.864 314.054 382.791 314.054 382.791L326.837 351.402C327.965 363.531 327.013 377.309 326.358 384.295H325.551L324.586 399.183C324.54 399.551 324.572 399.925 324.681 400.279C324.791 400.634 324.974 400.961 325.22 401.24C325.465 401.518 325.768 401.741 326.106 401.893C326.444 402.046 326.812 402.124 327.183 402.124H346.937C347.169 402.125 347.396 402.066 347.598 401.954C347.8 401.842 347.97 401.68 348.092 401.484C348.214 401.287 348.283 401.063 348.293 400.832C348.304 400.601 348.255 400.372 348.151 400.165L344.729 393.325C343.258 390.386 342.529 387.131 342.605 383.846L344.365 308.388L348.921 297.199L365.503 269.152L368.154 383.106C368.23 386.392 367.501 389.646 366.031 392.585L362.609 399.425C362.505 399.632 362.456 399.861 362.467 400.092C362.477 400.323 362.546 400.547 362.668 400.744C362.79 400.94 362.96 401.102 363.162 401.214C363.364 401.326 363.591 401.385 363.822 401.384H383.565C383.984 401.384 384.397 401.283 384.768 401.09C385.14 400.897 385.46 400.617 385.7 400.274L386.161 403.913L385.7 400.274C386.075 399.746 386.24 399.098 386.161 398.455L385.197 384.313L384.457 384.259C383.662 376.035 382.242 356.399 385.063 342.609C387.709 329.26 389.452 315.749 390.281 302.166L393.43 255.18H393.927L394.097 252.032L394.831 252.069C394.831 252.069 404.017 214.725 380.78 194.816H380.367L380.659 194.24H379.858V188.812H381.017L382.09 173.973C409.089 190.201 410.115 171.777 410.115 171.777C409.205 147.884 406.074 131.917 402.076 121.274ZM372.535 23.7357C372.535 23.8448 372.535 23.954 372.535 24.0692C372.456 22.69 371.911 21.3784 370.99 20.3485C370.068 19.3186 368.825 18.6314 367.463 18.3991C367.58 18.197 367.693 17.9948 367.802 17.7927C369.147 18.1036 370.346 18.8602 371.205 19.9393C372.065 21.0184 372.533 22.3565 372.535 23.7357ZM315.328 159.716L323.439 130.819L325.399 154.719L315.328 159.716ZM383.474 155.192L385.015 133.815L394.595 160.419L383.474 155.192Z" fill="url(#paint0_linear)"/>
<path d="M354.176 92.4443C371.03 92.4443 384.693 78.7874 384.693 61.9408C384.693 45.0942 371.03 31.4373 354.176 31.4373C337.321 31.4373 323.658 45.0942 323.658 61.9408C323.658 78.7874 337.321 92.4443 354.176 92.4443Z" fill="#F55F44"/>
<path d="M383.498 380.086C383.498 380.086 380.191 353.634 383.68 336.545C386.212 323.772 387.88 310.844 388.673 297.848L392.666 238.285L364.441 243.573L367.505 375.296" fill="#FDA57D"/>
<path d="M367.505 375.296C367.582 378.448 366.884 381.572 365.473 384.392L362.202 390.935C362.105 391.133 362.059 391.352 362.069 391.572C362.079 391.792 362.145 392.006 362.261 392.194C362.377 392.381 362.539 392.536 362.732 392.644C362.924 392.752 363.141 392.808 363.361 392.809H382.248C382.603 392.809 382.954 392.733 383.277 392.586C383.6 392.44 383.888 392.227 384.123 391.961C384.357 391.695 384.533 391.382 384.637 391.043C384.742 390.704 384.773 390.347 384.73 389.995L383.807 376.466" fill="#333333"/>
<path d="M327.074 380.796C327.074 380.796 330.38 354.343 326.892 337.254C324.36 324.482 322.692 311.554 321.898 298.558L317.906 238.994L346.131 244.282L343.067 376.005" fill="#FDA57D"/>
<path d="M343.067 376.011C342.989 379.164 343.687 382.287 345.099 385.108L348.369 391.651C348.467 391.848 348.513 392.068 348.503 392.288C348.492 392.508 348.426 392.722 348.31 392.909C348.194 393.097 348.032 393.252 347.84 393.359C347.648 393.467 347.431 393.524 347.21 393.525H328.323C327.969 393.524 327.618 393.448 327.295 393.302C326.972 393.156 326.683 392.942 326.449 392.676C326.214 392.41 326.039 392.098 325.934 391.759C325.83 391.42 325.798 391.063 325.842 390.711L326.764 376.466" fill="#333333"/>
<path d="M378.735 183.257H329.507V202.305H378.735V183.257Z" fill="#FDA57D"/>
<path d="M384.147 390.517V390.523L384.736 395.229L384.147 390.517Z" fill="black"/>
<path opacity="0.05" d="M365.09 252.069L392.162 252.9L392.666 243.542L364.447 248.831L365.09 252.069Z" fill="black"/>
<path opacity="0.05" d="M345.651 252.069L318.58 252.9L318.076 243.542L346.294 248.831L345.651 252.069Z" fill="black"/>
<path d="M379.846 189.4H329.282L323.658 120.819C323.658 115.487 325.777 110.374 329.549 106.604C333.32 102.834 338.436 100.716 343.77 100.716H364.684C370.018 100.716 375.134 102.834 378.906 106.604C382.677 110.374 384.796 115.487 384.796 120.819L379.846 189.4Z" fill="#FB3523"/>
<path d="M358.465 83.1416H349.37C346.154 83.1416 343.546 85.7481 343.546 88.9633V105.828C343.546 109.043 346.154 111.65 349.37 111.65H358.465C361.682 111.65 364.289 109.043 364.289 105.828V88.9633C364.289 85.7481 361.682 83.1416 358.465 83.1416Z" fill="#FDA57D"/>
<path d="M329.282 194.585L346.998 229.285H359.678V248.351L393.048 249.94C393.048 249.94 401.839 214.209 379.603 195.161L329.282 194.585Z" fill="#FB3523"/>
<path d="M379.506 194.585L361.814 229.285L375.034 249.237L349.109 293.1L315.74 374.968C315.74 374.968 307.246 214.179 329.507 195.131L379.506 194.585Z" fill="#FB3523"/>
<g opacity="0.05">
<path opacity="0.05" d="M330.21 113.433C330.421 112.366 330.717 111.317 331.096 110.298C328.959 112.181 327.247 114.498 326.075 117.095C324.904 119.691 324.299 122.507 324.301 125.355L326.218 148.721L330.21 113.433Z" fill="black"/>
</g>
<g opacity="0.05">
<path opacity="0.05" d="M377.88 120.558C377.669 119.491 377.373 118.443 376.994 117.423C379.132 119.307 380.843 121.624 382.015 124.22C383.186 126.817 383.791 129.633 383.789 132.481L381.872 155.847L377.88 120.558Z" fill="black"/>
</g>
<path d="M393.424 112.626C400.098 120.959 406.317 138.205 407.688 173.099C407.688 173.099 406.098 201.674 353.69 154.052L352.101 122.014C352.1 121.841 352.137 121.67 352.211 121.514C352.285 121.358 352.392 121.22 352.526 121.111C352.66 121.001 352.816 120.923 352.984 120.882C353.152 120.841 353.327 120.838 353.496 120.874C354.903 121.19 356.16 121.976 357.06 123.101C357.961 124.226 358.452 125.624 358.453 127.065V146.113L392.811 162.184L377.534 119.788C375.914 110.637 387.606 105.349 393.424 112.626Z" fill="#FDA57D"/>
<path d="M369.944 101.935C369.944 101.935 391.179 96.9804 400.213 124.725L379.154 127.52L369.944 101.935Z" fill="#FB3523"/>
<path d="M316.48 109.145C308.69 115.664 300.451 132.347 298.855 173.106C298.855 173.106 301.513 201.389 353.921 153.766L354.436 122.02C354.437 121.847 354.4 121.676 354.326 121.52C354.252 121.364 354.145 121.226 354.011 121.117C353.877 121.008 353.721 120.93 353.553 120.889C353.385 120.847 353.21 120.845 353.041 120.88C351.635 121.196 350.379 121.981 349.478 123.105C348.578 124.229 348.086 125.625 348.084 127.065V146.113L316.966 161.541L329.531 116.756C330.835 109.418 322.214 104.342 316.48 109.145Z" fill="#FDA57D"/>
<path d="M336.854 101.935C336.854 101.935 315.619 96.9804 306.585 124.725L327.99 127.199L336.854 101.935Z" fill="#FB3523"/>
<path opacity="0.05" d="M353.921 121.371H353.272V153.766H353.921V121.371Z" fill="black"/>
<path opacity="0.05" d="M354.885 96.9561C358.321 96.9572 361.726 96.3005 364.914 95.0216C364.751 92.5043 363.636 90.1433 361.794 88.4179C359.953 86.6925 357.524 85.7319 355.001 85.7311H354.151C351.67 85.7315 349.278 86.6594 347.446 88.3324C345.614 90.0054 344.474 92.3027 344.25 94.7729C347.61 96.2156 351.229 96.9585 354.885 96.9561Z" fill="black"/>
<path d="M354.23 94.3666C369.141 94.3666 381.229 82.2845 381.229 67.3805C381.229 52.4764 369.141 40.3943 354.23 40.3943C339.319 40.3943 327.231 52.4764 327.231 67.3805C327.231 82.2845 339.319 94.3666 354.23 94.3666Z" fill="#FDA57D"/>
<path d="M345.087 37.9262C348.314 37.9262 350.93 35.3115 350.93 32.0862C350.93 28.8609 348.314 26.2463 345.087 26.2463C341.86 26.2463 339.244 28.8609 339.244 32.0862C339.244 35.3115 341.86 37.9262 345.087 37.9262Z" fill="#F55F44"/>
<path d="M365.861 37.9262C369.088 37.9262 371.704 35.3115 371.704 32.0862C371.704 28.8609 369.088 26.2463 365.861 26.2463C362.634 26.2463 360.018 28.8609 360.018 32.0862C360.018 35.3115 362.634 37.9262 365.861 37.9262Z" fill="#F55F44"/>
<path d="M354.825 34.0329C361.278 34.0329 366.51 28.8036 366.51 22.353C366.51 15.9024 361.278 10.6732 354.825 10.6732C348.371 10.6732 343.139 15.9024 343.139 22.353C343.139 28.8036 348.371 34.0329 354.825 34.0329Z" fill="#F55F44"/>
<path d="M367.159 24.9485C365.998 24.9477 364.864 25.2941 363.901 25.9431C365.242 25.4655 366.711 25.4936 368.032 26.022C369.354 26.5504 370.437 27.5428 371.078 28.8129C371.72 30.083 371.875 31.5434 371.515 32.9199C371.156 34.2964 370.306 35.4944 369.125 36.2888C370.417 35.8235 371.504 34.918 372.195 33.7314C372.886 32.5448 373.136 31.1528 372.902 29.8C372.668 28.4472 371.965 27.22 370.916 26.3339C369.867 25.4478 368.539 24.9594 367.165 24.9546L367.159 24.9485Z" fill="#F55F44"/>
<path d="M356.766 8.72653C354.053 8.72284 351.424 9.66666 349.334 11.3948C351.892 10.0352 354.863 9.67356 357.673 10.3802C360.482 11.0868 362.929 12.8112 364.538 15.2189C366.147 17.6267 366.804 20.546 366.381 23.4106C365.959 26.2751 364.487 28.8807 362.251 30.7218C364.553 29.5 366.379 27.5443 367.441 25.1656C368.503 22.7868 368.739 20.1216 368.111 17.5934C367.484 15.0653 366.029 12.8194 363.977 11.2128C361.926 9.60621 359.397 8.73108 356.791 8.72653H356.766Z" fill="#F55F44"/>
<path d="M334.694 43.1172C334.694 43.1172 337.94 64.5303 378.845 52.8504L358.72 35.3306L334.694 43.1172Z" fill="#F55F44"/>
<path opacity="0.05" d="M344.316 303.337L328.226 345.738V347.2L344.316 306.259V303.337Z" fill="black"/>
<g opacity="0.5">
<path opacity="0.5" d="M473.923 164.124H473.025V169.212H473.923V164.124Z" fill="#47E6B1"/>
<path opacity="0.5" d="M476.016 167.12V166.223H470.926V167.12H476.016Z" fill="#47E6B1"/>
</g>
<g opacity="0.5">
<path opacity="0.5" d="M261.573 275.101H260.675V280.189H261.573V275.101Z" fill="#47E6B1"/>
<path opacity="0.5" d="M263.666 278.097V277.199H258.576V278.097H263.666Z" fill="#47E6B1"/>
</g>
<g opacity="0.5">
<path opacity="0.5" d="M64.973 314.38H64.0751V319.468H64.973V314.38Z" fill="#47E6B1"/>
<path opacity="0.5" d="M67.0662 317.369V316.472H61.9759V317.369H67.0662Z" fill="#47E6B1"/>
</g>
<g opacity="0.5">
<path opacity="0.5" d="M271.984 330.153H271.086V335.241H271.984V330.153Z" fill="#47E6B1"/>
<path opacity="0.5" d="M274.083 333.143V332.245H268.993V333.143H274.083Z" fill="#47E6B1"/>
</g>
<path opacity="0.5" d="M338.456 460.766C338.209 460.657 338.011 460.462 337.899 460.217C337.787 459.972 337.769 459.695 337.849 459.438C337.854 459.397 337.854 459.357 337.849 459.316C337.855 459.199 337.823 459.083 337.758 458.985C337.693 458.887 337.599 458.812 337.488 458.771C337.378 458.731 337.257 458.726 337.144 458.759C337.031 458.792 336.932 458.859 336.86 458.953C336.835 458.986 336.815 459.023 336.799 459.062C336.691 459.308 336.495 459.506 336.25 459.618C336.005 459.73 335.728 459.748 335.471 459.668H335.349C335.232 459.662 335.116 459.694 335.017 459.759C334.919 459.824 334.844 459.918 334.804 460.029C334.763 460.139 334.759 460.259 334.792 460.372C334.824 460.485 334.892 460.585 334.985 460.657C335.019 460.681 335.056 460.702 335.094 460.717C335.341 460.826 335.539 461.021 335.651 461.266C335.763 461.511 335.781 461.788 335.701 462.045C335.696 462.086 335.696 462.126 335.701 462.167C335.695 462.284 335.727 462.4 335.792 462.498C335.857 462.596 335.951 462.671 336.062 462.712C336.172 462.752 336.293 462.757 336.406 462.724C336.519 462.692 336.618 462.624 336.69 462.531C336.715 462.497 336.735 462.46 336.751 462.421C336.859 462.175 337.055 461.977 337.3 461.865C337.545 461.754 337.822 461.736 338.079 461.815H338.201C338.318 461.821 338.435 461.789 338.533 461.724C338.631 461.659 338.706 461.565 338.746 461.454C338.787 461.344 338.791 461.224 338.758 461.111C338.726 460.998 338.658 460.898 338.565 460.826C338.531 460.802 338.494 460.782 338.456 460.766Z" fill="#4D8AF0"/>
<path opacity="0.5" d="M478.977 278.721C478.73 278.613 478.532 278.418 478.42 278.173C478.308 277.928 478.291 277.651 478.37 277.393C478.375 277.353 478.375 277.312 478.37 277.272C478.376 277.155 478.344 277.039 478.279 276.94C478.214 276.842 478.12 276.768 478.009 276.727C477.899 276.686 477.778 276.682 477.665 276.715C477.552 276.747 477.453 276.815 477.381 276.908C477.357 276.942 477.336 276.979 477.32 277.017C477.212 277.264 477.016 277.462 476.771 277.573C476.526 277.685 476.249 277.703 475.992 277.624H475.87C475.753 277.618 475.637 277.65 475.538 277.715C475.44 277.78 475.366 277.874 475.325 277.984C475.284 278.095 475.28 278.215 475.313 278.328C475.345 278.441 475.413 278.541 475.506 278.612C475.54 278.637 475.577 278.657 475.615 278.673C475.862 278.781 476.06 278.977 476.172 279.222C476.284 279.466 476.302 279.744 476.222 280.001C476.217 280.041 476.217 280.082 476.222 280.122C476.216 280.24 476.248 280.356 476.313 280.454C476.378 280.552 476.472 280.627 476.583 280.667C476.693 280.708 476.814 280.712 476.927 280.68C477.04 280.647 477.139 280.579 477.211 280.486C477.236 280.452 477.256 280.416 477.272 280.377C477.38 280.131 477.576 279.933 477.821 279.821C478.066 279.709 478.343 279.691 478.6 279.771H478.722C478.839 279.776 478.956 279.745 479.054 279.68C479.152 279.615 479.227 279.52 479.267 279.41C479.308 279.3 479.312 279.179 479.28 279.066C479.247 278.953 479.179 278.854 479.086 278.782C479.052 278.758 479.015 278.737 478.977 278.721Z" fill="#4D8AF0"/>
<path opacity="0.5" d="M94.52 184.446C94.2735 184.337 94.0756 184.142 93.9637 183.897C93.8518 183.652 93.8339 183.375 93.9133 183.118C93.9179 183.077 93.9179 183.037 93.9133 182.996C93.9191 182.879 93.8872 182.763 93.8224 182.665C93.7575 182.567 93.663 182.492 93.5526 182.451C93.4422 182.411 93.3217 182.406 93.2087 182.439C93.0957 182.472 92.9961 182.539 92.9244 182.633C92.8999 182.666 92.8795 182.703 92.8637 182.742C92.7551 182.988 92.5598 183.186 92.3148 183.298C92.0699 183.41 91.7923 183.428 91.535 183.348H91.4136C91.2961 183.342 91.1799 183.374 91.0818 183.439C90.9837 183.504 90.9089 183.598 90.8682 183.709C90.8276 183.819 90.8233 183.939 90.8559 184.052C90.8885 184.165 90.9564 184.265 91.0496 184.337C91.0835 184.361 91.1201 184.381 91.1588 184.397C91.4053 184.506 91.6032 184.701 91.7151 184.946C91.827 185.191 91.8449 185.468 91.7655 185.725C91.7609 185.766 91.7609 185.806 91.7655 185.847C91.7597 185.964 91.7916 186.08 91.8565 186.178C91.9213 186.276 92.0159 186.351 92.1262 186.392C92.2366 186.432 92.3571 186.437 92.4701 186.404C92.5831 186.371 92.6827 186.304 92.7545 186.211C92.779 186.177 92.7993 186.14 92.8151 186.101C92.9237 185.855 93.119 185.657 93.364 185.545C93.609 185.434 93.8865 185.416 94.1438 185.495H94.2652C94.3827 185.501 94.4989 185.469 94.597 185.404C94.6951 185.339 94.7699 185.245 94.8106 185.134C94.8512 185.024 94.8555 184.904 94.8229 184.791C94.7903 184.678 94.7224 184.578 94.6292 184.506C94.5953 184.482 94.5587 184.462 94.52 184.446Z" fill="#4D8AF0"/>
<path opacity="0.5" d="M493.198 113.269C494.19 113.269 494.994 112.465 494.994 111.474C494.994 110.483 494.19 109.679 493.198 109.679C492.206 109.679 491.402 110.483 491.402 111.474C491.402 112.465 492.206 113.269 493.198 113.269Z" fill="#F55F44"/>
<path opacity="0.5" d="M72.108 251.165C73.0998 251.165 73.9039 250.362 73.9039 249.37C73.9039 248.379 73.0998 247.575 72.108 247.575C71.1162 247.575 70.3121 248.379 70.3121 249.37C70.3121 250.362 71.1162 251.165 72.108 251.165Z" fill="#4D8AF0"/>
<path opacity="0.5" d="M420.368 206.126C421.36 206.126 422.164 205.322 422.164 204.331C422.164 203.339 421.36 202.536 420.368 202.536C419.376 202.536 418.572 203.339 418.572 204.331C418.572 205.322 419.376 206.126 420.368 206.126Z" fill="#F55F44"/>
<g opacity="0.5">
<path opacity="0.5" d="M186.461 23.1475C185.166 22.226 183.582 21.8021 182 21.9536C180.417 22.1051 178.943 22.8218 177.846 23.9722C176.657 25.2663 176.02 26.9729 176.07 28.7292C176.119 30.4856 176.853 32.1533 178.113 33.3779L186.352 41.5587C186.611 41.8168 186.961 41.9618 187.326 41.9618C187.691 41.9618 188.042 41.8168 188.3 41.5587L196.49 33.3234C197.744 32.0915 198.467 30.4199 198.506 28.6636C198.546 26.9073 197.899 25.2047 196.703 23.9176C195.597 22.7766 194.116 22.0725 192.532 21.9344C190.949 21.7963 189.369 22.2334 188.081 23.1656C187.843 23.3323 187.559 23.4202 187.269 23.417C186.978 23.4137 186.696 23.3194 186.461 23.1475Z" fill="#F55F44"/>
<path opacity="0.5" d="M187.378 41.2191C187.282 41.3961 187.232 41.5941 187.232 41.7952C187.232 41.9963 187.282 42.1943 187.378 42.3713C187.495 42.5428 187.603 42.721 187.699 42.905C187.912 43.4326 187.541 44.0087 187.165 44.4392C186.929 44.7121 186.662 45.082 186.819 45.4095C186.893 45.5301 186.988 45.6368 187.099 45.7249C187.349 45.9681 187.532 46.2716 187.631 46.6062C187.729 46.9408 187.74 47.2951 187.662 47.6351C187.584 47.975 187.42 48.2892 187.185 48.5473C186.95 48.8054 186.653 48.9988 186.322 49.1087" stroke="#F55F44" stroke-miterlimit="10"/>
</g>
<g opacity="0.5">
<path opacity="0.5" d="M454.023 72.2683C452.727 71.3468 451.143 70.9229 449.561 71.0744C447.978 71.2259 446.504 71.9426 445.407 73.093C444.218 74.3871 443.581 76.0937 443.631 77.8501C443.68 79.6064 444.413 81.2742 445.674 82.4988L453.913 90.6795C454.172 90.9376 454.522 91.0826 454.887 91.0826C455.252 91.0826 455.603 90.9376 455.861 90.6795L464.052 82.4442C465.305 81.2123 466.028 79.5407 466.067 77.7844C466.107 76.0281 465.46 74.3256 464.264 73.0385C463.158 71.8975 461.677 71.1934 460.093 71.0553C458.51 70.9171 456.93 71.3543 455.642 72.2865C455.404 72.4532 455.12 72.5411 454.83 72.5378C454.539 72.5346 454.257 72.4403 454.023 72.2683Z" fill="#F55F44"/>
<path opacity="0.5" d="M454.939 90.3399C454.843 90.5169 454.793 90.7149 454.793 90.916C454.793 91.1172 454.843 91.3152 454.939 91.4921C455.056 91.6636 455.164 91.8418 455.26 92.0258C455.473 92.5534 455.102 93.1295 454.726 93.5601C454.49 93.833 454.223 94.2029 454.38 94.5304C454.454 94.6509 454.549 94.7577 454.66 94.8457C454.91 95.089 455.093 95.3925 455.192 95.727C455.29 96.0616 455.301 96.4159 455.223 96.7559C455.145 97.0959 454.981 97.41 454.746 97.6682C454.511 97.9263 454.214 98.1196 453.883 98.2296" stroke="#F55F44" stroke-miterlimit="10"/>
</g>
<g opacity="0.5">
<path opacity="0.5" d="M28.7158 354.258C27.4207 353.337 25.8367 352.913 24.2542 353.065C22.6717 353.216 21.197 353.933 20.1004 355.083C18.9113 356.377 18.274 358.084 18.3238 359.84C18.3737 361.597 19.1068 363.264 20.3674 364.489L28.6066 372.67C28.8648 372.928 29.2151 373.073 29.5803 373.073C29.9456 373.073 30.2958 372.928 30.5541 372.67L38.7448 364.434C39.9978 363.202 40.721 361.531 40.7606 359.775C40.8003 358.018 40.1533 356.316 38.9571 355.029C37.8509 353.888 36.3703 353.184 34.7867 353.045C33.2032 352.907 31.6229 353.344 30.3357 354.277C30.0977 354.443 29.8134 354.531 29.5228 354.528C29.2322 354.525 28.95 354.43 28.7158 354.258Z" fill="#F55F44"/>
<path opacity="0.5" d="M29.6319 372.33C29.5363 372.507 29.4863 372.705 29.4863 372.906C29.4863 373.107 29.5363 373.305 29.6319 373.482C29.7494 373.654 29.8568 373.832 29.9535 374.016C30.1658 374.544 29.7957 375.12 29.4196 375.55C29.1829 375.823 28.916 376.193 29.0737 376.521C29.1477 376.641 29.2421 376.748 29.3528 376.836C29.6029 377.079 29.7861 377.383 29.8849 377.717C29.9836 378.052 29.9944 378.406 29.9164 378.746C29.8384 379.086 29.6741 379.4 29.4394 379.658C29.2047 379.916 28.9074 380.11 28.5762 380.22" stroke="#F55F44" stroke-miterlimit="10"/>
</g>
<g opacity="0.5">
<path opacity="0.5" d="M17.7949 43.1597C16.4998 42.2382 14.9158 41.8143 13.3333 41.9658C11.7509 42.1173 10.2761 42.834 9.17958 43.9844C7.99048 45.2785 7.35314 46.9851 7.40299 48.7414C7.45284 50.4978 8.18595 52.1655 9.44654 53.3901L17.6857 61.5709C17.944 61.829 18.2943 61.974 18.6595 61.974C19.0247 61.974 19.375 61.829 19.6333 61.5709L27.8239 53.3356C29.077 52.1037 29.8001 50.4321 29.8398 48.6758C29.8794 46.9195 29.2324 45.2169 28.0363 43.9298C26.9301 42.7889 25.4494 42.0847 23.8659 41.9466C22.2823 41.8085 20.702 42.2456 19.4149 43.1779C19.1769 43.3445 18.8926 43.4324 18.602 43.4292C18.3114 43.4259 18.0291 43.3316 17.7949 43.1597Z" fill="#F55F44"/>
<path opacity="0.5" d="M18.7111 61.2313C18.6155 61.4083 18.5654 61.6063 18.5654 61.8074C18.5654 62.0085 18.6155 62.2065 18.7111 62.3835C18.8286 62.555 18.9359 62.7332 19.0326 62.9172C19.245 63.4448 18.8749 64.0209 18.4987 64.4514C18.2621 64.7243 17.9951 65.0943 18.1529 65.4217C18.2268 65.5423 18.3213 65.649 18.432 65.7371C18.6821 65.9803 18.8653 66.2838 18.964 66.6184C19.0627 66.953 19.0736 67.3073 18.9956 67.6473C18.9175 67.9872 18.7532 68.3014 18.5185 68.5595C18.2838 68.8176 17.9865 69.011 17.6554 69.1209" stroke="#F55F44" stroke-miterlimit="10"/>
</g>
<g opacity="0.5">
<path opacity="0.5" d="M230.752 288.764C229.457 287.842 227.873 287.419 226.29 287.57C224.708 287.722 223.233 288.438 222.136 289.589C220.947 290.883 220.31 292.589 220.36 294.346C220.41 296.102 221.143 297.77 222.403 298.994L230.642 307.175C230.901 307.433 231.251 307.578 231.616 307.578C231.981 307.578 232.332 307.433 232.59 307.175L240.781 298.94C242.034 297.708 242.757 296.036 242.796 294.28C242.836 292.524 242.189 290.821 240.993 289.534C239.887 288.393 238.406 287.689 236.823 287.551C235.239 287.413 233.659 287.85 232.372 288.782C232.134 288.949 231.849 289.037 231.559 289.033C231.268 289.03 230.986 288.936 230.752 288.764Z" fill="#F55F44"/>
<path opacity="0.5" d="M231.668 306.836C231.572 307.013 231.522 307.211 231.522 307.412C231.522 307.613 231.572 307.811 231.668 307.988C231.785 308.159 231.893 308.337 231.989 308.521C232.202 309.049 231.832 309.625 231.455 310.056C231.219 310.329 230.952 310.699 231.11 311.026C231.184 311.147 231.278 311.253 231.389 311.341C231.639 311.585 231.822 311.888 231.921 312.223C232.019 312.557 232.03 312.912 231.952 313.252C231.874 313.592 231.71 313.906 231.475 314.164C231.241 314.422 230.943 314.615 230.612 314.725" stroke="#F55F44" stroke-miterlimit="10"/>
</g>
<g opacity="0.5">
<path opacity="0.5" d="M240.459 140.189C239.164 139.267 237.58 138.843 235.998 138.995C234.415 139.146 232.94 139.863 231.844 141.013C230.655 142.307 230.017 144.014 230.067 145.77C230.117 147.527 230.85 149.194 232.111 150.419L240.35 158.6C240.608 158.858 240.958 159.003 241.324 159.003C241.689 159.003 242.039 158.858 242.297 158.6L250.488 150.364C251.741 149.133 252.464 147.461 252.504 145.705C252.544 143.948 251.897 142.246 250.7 140.959C249.594 139.818 248.114 139.114 246.53 138.975C244.947 138.837 243.366 139.275 242.079 140.207C241.841 140.373 241.557 140.461 241.266 140.458C240.976 140.455 240.693 140.361 240.459 140.189Z" fill="#F55F44"/>
<path opacity="0.5" d="M241.375 158.26C241.28 158.437 241.23 158.635 241.23 158.836C241.23 159.037 241.28 159.235 241.375 159.412C241.493 159.584 241.6 159.762 241.697 159.946C241.909 160.474 241.539 161.05 241.163 161.48C240.926 161.753 240.659 162.123 240.817 162.451C240.891 162.571 240.985 162.678 241.096 162.766C241.346 163.009 241.529 163.313 241.628 163.647C241.727 163.982 241.738 164.336 241.66 164.676C241.582 165.016 241.417 165.33 241.183 165.588C240.948 165.846 240.651 166.04 240.32 166.15" stroke="#F55F44" stroke-miterlimit="10"/>
</g>
<g opacity="0.5">
<path opacity="0.5" d="M82.7134 126.847C81.4183 125.926 79.8342 125.502 78.2518 125.653C76.6693 125.805 75.1946 126.521 74.098 127.672C72.9089 128.966 72.2716 130.672 72.3214 132.429C72.3713 134.185 73.1044 135.853 74.365 137.078L82.6042 145.258C82.8624 145.516 83.2127 145.661 83.5779 145.661C83.9432 145.661 84.2934 145.516 84.5517 145.258L92.7423 137.023C93.9954 135.791 94.7186 134.119 94.7582 132.363C94.7979 130.607 94.1509 128.904 92.9547 127.617C91.8485 126.476 90.3679 125.772 88.7843 125.634C87.2008 125.496 85.6205 125.933 84.3333 126.865C84.0953 127.032 83.811 127.12 83.5204 127.117C83.2298 127.113 82.9476 127.019 82.7134 126.847Z" fill="#F55F44"/>
<path opacity="0.5" d="M83.6295 144.919C83.5339 145.096 83.4839 145.294 83.4839 145.495C83.4839 145.696 83.5339 145.894 83.6295 146.071C83.747 146.242 83.8544 146.421 83.9511 146.605C84.1634 147.132 83.7933 147.708 83.4171 148.139C83.1805 148.412 82.9136 148.782 83.0713 149.109C83.1452 149.23 83.2397 149.336 83.3504 149.424C83.6005 149.668 83.7837 149.971 83.8824 150.306C83.9812 150.64 83.992 150.995 83.914 151.335C83.836 151.675 83.6717 151.989 83.437 152.247C83.2022 152.505 82.905 152.698 82.5738 152.808" stroke="#F55F44" stroke-miterlimit="10"/>
</g>
<g opacity="0.5">
<path opacity="0.5" d="M238.554 353.549H236.734V363.858H238.554V353.549Z" fill="#47E6B1"/>
<path opacity="0.5" d="M242.801 359.613V357.794H232.487V359.613H242.801Z" fill="#47E6B1"/>
</g>
<g opacity="0.5">
<path opacity="0.5" d="M481.846 308.067H480.026V318.376H481.846V308.067Z" fill="#47E6B1"/>
<path opacity="0.5" d="M486.093 314.131V312.312H475.779V314.131H486.093Z" fill="#47E6B1"/>
</g>
<g opacity="0.5">
<path opacity="0.5" d="M111.751 26.6829H109.931V36.9923H111.751V26.6829Z" fill="#47E6B1"/>
<path opacity="0.5" d="M115.998 32.7472V30.9279H105.684V32.7472H115.998Z" fill="#47E6B1"/>
</g>
<g opacity="0.5">
<path opacity="0.5" d="M434.523 137.053H432.703V147.363H434.523V137.053Z" fill="#47E6B1"/>
<path opacity="0.5" d="M438.77 143.118V141.298H428.456V143.118H438.77Z" fill="#47E6B1"/>
</g>
<g opacity="0.5">
<path opacity="0.5" d="M62.0001 208.006H60.18V218.315H62.0001V208.006Z" fill="#47E6B1"/>
<path opacity="0.5" d="M66.2471 214.07V212.251H55.933V214.07H66.2471Z" fill="#47E6B1"/>
</g>
<g opacity="0.5">
<path opacity="0.5" d="M57.7531 391.754H55.933V402.063H57.7531V391.754Z" fill="#47E6B1"/>
<path opacity="0.5" d="M62.0002 397.818V395.999H51.686V397.818H62.0002Z" fill="#47E6B1"/>
</g>
<path opacity="0.5" d="M282.905 57.3744C282.408 57.1514 282.011 56.7544 281.787 56.2582C281.563 55.7621 281.529 55.2013 281.691 54.6818C281.717 54.6012 281.734 54.5177 281.74 54.4332C281.755 54.1932 281.693 53.9546 281.562 53.753C281.431 53.5514 281.238 53.3976 281.012 53.3144C280.786 53.2312 280.54 53.2232 280.309 53.2915C280.078 53.3598 279.876 53.5007 279.732 53.6933C279.683 53.7611 279.642 53.8344 279.61 53.9117C279.387 54.408 278.99 54.8055 278.494 55.029C277.997 55.2525 277.436 55.2865 276.917 55.1245C276.836 55.0986 276.752 55.0823 276.668 55.076C276.428 55.0605 276.189 55.123 275.987 55.2541C275.786 55.3852 275.632 55.578 275.548 55.8036C275.465 56.0293 275.457 56.2758 275.526 56.5064C275.594 56.7369 275.735 56.9393 275.928 57.0833C275.995 57.1321 276.069 57.1728 276.146 57.2046C276.643 57.4275 277.04 57.8246 277.264 58.3207C277.487 58.8168 277.521 59.3776 277.359 59.8971C277.333 59.9778 277.317 60.0613 277.311 60.1458C277.295 60.3858 277.358 60.6243 277.489 60.8259C277.62 61.0275 277.813 61.1814 278.039 61.2646C278.265 61.3477 278.511 61.3558 278.742 61.2875C278.973 61.2192 279.175 61.0782 279.319 60.8856C279.368 60.8178 279.409 60.7445 279.44 60.6673C279.664 60.1709 280.061 59.7734 280.557 59.55C281.053 59.3265 281.615 59.2925 282.134 59.4544C282.215 59.4804 282.298 59.4966 282.383 59.5029C282.623 59.5184 282.862 59.456 283.064 59.3248C283.265 59.1937 283.419 59.001 283.502 58.7753C283.586 58.5497 283.594 58.3032 283.525 58.0726C283.457 57.842 283.316 57.6396 283.123 57.4957C283.055 57.4469 282.982 57.4062 282.905 57.3744Z" fill="#4D8AF0"/>
<path opacity="0.5" d="M466.133 199.886C465.636 199.663 465.238 199.266 465.015 198.769C464.791 198.273 464.757 197.712 464.919 197.193C464.945 197.112 464.961 197.029 464.968 196.944C464.983 196.704 464.921 196.466 464.789 196.264C464.658 196.063 464.465 195.909 464.24 195.826C464.014 195.742 463.767 195.734 463.537 195.803C463.306 195.871 463.103 196.012 462.959 196.204C462.911 196.272 462.87 196.346 462.838 196.423C462.615 196.919 462.218 197.317 461.721 197.54C461.225 197.764 460.664 197.798 460.144 197.636C460.064 197.61 459.98 197.593 459.896 197.587C459.655 197.572 459.417 197.634 459.215 197.765C459.013 197.896 458.859 198.089 458.776 198.315C458.693 198.54 458.685 198.787 458.753 199.018C458.822 199.248 458.963 199.45 459.155 199.594C459.223 199.643 459.296 199.684 459.374 199.716C459.87 199.939 460.268 200.336 460.492 200.832C460.715 201.328 460.749 201.889 460.587 202.408C460.561 202.489 460.545 202.572 460.539 202.657C460.523 202.897 460.586 203.135 460.717 203.337C460.848 203.539 461.041 203.693 461.267 203.776C461.492 203.859 461.739 203.867 461.97 203.799C462.2 203.73 462.403 203.589 462.547 203.397C462.596 203.329 462.636 203.256 462.668 203.178C462.891 202.682 463.289 202.285 463.785 202.061C464.281 201.838 464.842 201.804 465.362 201.966C465.443 201.992 465.526 202.008 465.611 202.014C465.851 202.03 466.09 201.967 466.291 201.836C466.493 201.705 466.647 201.512 466.73 201.286C466.813 201.061 466.821 200.814 466.753 200.584C466.685 200.353 466.544 200.151 466.351 200.007C466.283 199.958 466.21 199.917 466.133 199.886Z" fill="#4D8AF0"/>
<g opacity="0.5">
<path opacity="0.5" d="M15.2467 87.7141H14.3488V92.802H15.2467V87.7141Z" fill="#47E6B1"/>
<path opacity="0.5" d="M17.3399 90.7099V89.8123H12.2496V90.7099H17.3399Z" fill="#47E6B1"/>
</g>
<g opacity="0.5">
<path opacity="0.5" d="M53.5668 166.417H52.6689V171.505H53.5668V166.417Z" fill="#47E6B1"/>
<path opacity="0.5" d="M55.666 169.406V168.509H50.5757V169.406H55.666Z" fill="#47E6B1"/>
</g>
<path opacity="0.5" d="M66.6476 87.2047C66.4011 87.0962 66.2031 86.9009 66.0913 86.6561C65.9794 86.4112 65.9615 86.1338 66.0409 85.8766C66.0455 85.8363 66.0455 85.7956 66.0409 85.7553C66.0467 85.6379 66.0148 85.5217 65.9499 85.4236C65.885 85.3256 65.7905 85.2508 65.6802 85.2102C65.5698 85.1696 65.4493 85.1653 65.3363 85.1979C65.2233 85.2305 65.1237 85.2983 65.0519 85.3915C65.0274 85.4253 65.0071 85.462 64.9912 85.5006C64.8827 85.747 64.6874 85.9448 64.4424 86.0566C64.1974 86.1685 63.9199 86.1864 63.6625 86.107H63.5412C63.4237 86.1012 63.3075 86.1331 63.2094 86.1979C63.1112 86.2628 63.0364 86.3573 62.9958 86.4676C62.9552 86.5779 62.9509 86.6983 62.9835 86.8113C63.0161 86.9242 63.084 87.0238 63.1772 87.0955C63.211 87.12 63.2477 87.1403 63.2864 87.1562C63.5328 87.2647 63.7308 87.4599 63.8427 87.7048C63.9545 87.9496 63.9725 88.227 63.8931 88.4842C63.8884 88.5245 63.8884 88.5652 63.8931 88.6055C63.8873 88.723 63.9191 88.8392 63.984 88.9372C64.0489 89.0353 64.1434 89.11 64.2538 89.1507C64.3642 89.1913 64.4847 89.1956 64.5977 89.163C64.7107 89.1304 64.8103 89.0625 64.882 88.9694C64.9065 88.9355 64.9269 88.8989 64.9427 88.8602C65.0512 88.6139 65.2466 88.416 65.4916 88.3042C65.7365 88.1924 66.0141 88.1745 66.2714 88.2538H66.3928C66.5102 88.2596 66.6265 88.2278 66.7246 88.1629C66.8227 88.0981 66.8975 88.0036 66.9382 87.8933C66.9788 87.7829 66.9831 87.6625 66.9505 87.5496C66.9178 87.4366 66.85 87.337 66.7568 87.2653C66.7229 87.2409 66.6863 87.2205 66.6476 87.2047Z" fill="#4D8AF0"/>
<path opacity="0.5" d="M20.3007 202.311C20.0542 202.203 19.8562 202.007 19.7444 201.763C19.6325 201.518 19.6146 201.24 19.6939 200.983C19.6986 200.943 19.6986 200.902 19.6939 200.862C19.6998 200.744 19.6679 200.628 19.603 200.53C19.5381 200.432 19.4436 200.357 19.3332 200.317C19.2228 200.276 19.1024 200.272 18.9894 200.304C18.8764 200.337 18.7767 200.405 18.705 200.498C18.6805 200.532 18.6602 200.569 18.6443 200.607C18.5358 200.854 18.3405 201.051 18.0955 201.163C17.8505 201.275 17.573 201.293 17.3156 201.214H17.1943C17.0768 201.208 16.9606 201.24 16.8625 201.305C16.7643 201.369 16.6895 201.464 16.6489 201.574C16.6083 201.684 16.604 201.805 16.6366 201.918C16.6692 202.031 16.737 202.13 16.8303 202.202C16.8641 202.227 16.9008 202.247 16.9395 202.263C17.1859 202.371 17.3839 202.566 17.4958 202.811C17.6076 203.056 17.6256 203.334 17.5462 203.591C17.5415 203.631 17.5415 203.672 17.5462 203.712C17.5404 203.83 17.5722 203.946 17.6371 204.044C17.702 204.142 17.7965 204.217 17.9069 204.257C18.0173 204.298 18.1377 204.302 18.2507 204.27C18.3637 204.237 18.4634 204.169 18.5351 204.076C18.5596 204.042 18.58 204.005 18.5958 203.967C18.7043 203.72 18.8997 203.523 19.1446 203.411C19.3896 203.299 19.6672 203.281 19.9245 203.36H20.0458C20.1633 203.366 20.2796 203.334 20.3777 203.269C20.4758 203.205 20.5506 203.11 20.5912 203C20.6319 202.889 20.6362 202.769 20.6036 202.656C20.5709 202.543 20.5031 202.444 20.4099 202.372C20.376 202.347 20.3393 202.327 20.3007 202.311Z" fill="#4D8AF0"/>
<g opacity="0.5">
<path opacity="0.5" d="M23.1704 231.656H21.3503V241.966H23.1704V231.656Z" fill="#47E6B1"/>
<path opacity="0.5" d="M27.4174 237.721V235.901H17.1033V237.721H27.4174Z" fill="#47E6B1"/>
</g>
<g opacity="0.5">
<path opacity="0.5" d="M227.026 70.3459H225.206V80.6552H227.026V70.3459Z" fill="#47E6B1"/>
<path opacity="0.5" d="M231.273 76.4102V74.5909H220.959V76.4102H231.273Z" fill="#47E6B1"/>
</g>
<path opacity="0.5" d="M7.45652 123.475C6.95993 123.252 6.56225 122.855 6.33866 122.359C6.11508 121.863 6.08108 121.302 6.2431 120.783C6.26904 120.702 6.28533 120.619 6.29163 120.534C6.30712 120.294 6.24462 120.056 6.11344 119.854C5.98226 119.652 5.78943 119.498 5.56367 119.415C5.33791 119.332 5.09131 119.324 4.86061 119.392C4.62991 119.461 4.42746 119.602 4.28341 119.794C4.2346 119.862 4.19387 119.935 4.16206 120.013C3.93901 120.509 3.54176 120.906 3.0454 121.13C2.54905 121.353 1.98798 121.387 1.46826 121.225C1.38755 121.2 1.30404 121.183 1.2195 121.177C0.979396 121.161 0.740712 121.224 0.539012 121.355C0.337313 121.486 0.183388 121.679 0.100178 121.905C0.016968 122.13 0.00892817 122.377 0.0772464 122.607C0.145565 122.838 0.286589 123.04 0.479309 123.184C0.547146 123.233 0.620448 123.274 0.697727 123.305C1.19432 123.528 1.59199 123.926 1.81558 124.422C2.03916 124.918 2.07317 125.479 1.91116 125.998C1.88521 126.079 1.86892 126.162 1.86262 126.247C1.84713 126.487 1.90963 126.725 2.04081 126.927C2.17199 127.128 2.36482 127.282 2.59058 127.365C2.81634 127.449 3.06294 127.457 3.29364 127.388C3.52434 127.32 3.72679 127.179 3.87084 126.987C3.91965 126.919 3.96037 126.845 3.99218 126.768C4.21523 126.272 4.61249 125.874 5.10885 125.651C5.60521 125.427 6.16627 125.393 6.68599 125.555C6.76671 125.581 6.85021 125.598 6.93475 125.604C7.17485 125.619 7.41354 125.557 7.61524 125.426C7.81694 125.295 7.97085 125.102 8.05406 124.876C8.13727 124.651 8.14532 124.404 8.077 124.174C8.00869 123.943 7.86766 123.741 7.67494 123.597C7.60711 123.548 7.5338 123.507 7.45652 123.475Z" fill="#4D8AF0"/>
<path opacity="0.5" d="M390.9 437C390.403 436.777 390.006 436.38 389.782 435.884C389.559 435.388 389.525 434.827 389.687 434.307C389.712 434.227 389.729 434.143 389.735 434.059C389.751 433.819 389.688 433.58 389.557 433.378C389.426 433.177 389.233 433.023 389.007 432.94C388.781 432.857 388.535 432.849 388.304 432.917C388.073 432.985 387.871 433.126 387.727 433.319C387.678 433.387 387.637 433.46 387.605 433.537C387.382 434.033 386.985 434.431 386.489 434.654C385.992 434.878 385.431 434.912 384.912 434.75C384.831 434.724 384.747 434.708 384.663 434.701C384.423 434.686 384.184 434.748 383.982 434.88C383.781 435.011 383.627 435.203 383.544 435.429C383.46 435.655 383.452 435.901 383.521 436.132C383.589 436.362 383.73 436.565 383.923 436.709C383.991 436.758 384.064 436.798 384.141 436.83C384.638 437.053 385.035 437.45 385.259 437.946C385.483 438.442 385.517 439.003 385.355 439.523C385.329 439.603 385.312 439.687 385.306 439.771C385.291 440.011 385.353 440.25 385.484 440.451C385.615 440.653 385.808 440.807 386.034 440.89C386.26 440.973 386.506 440.981 386.737 440.913C386.968 440.845 387.17 440.704 387.314 440.511C387.363 440.443 387.404 440.37 387.436 440.293C387.659 439.796 388.056 439.399 388.552 439.175C389.049 438.952 389.61 438.918 390.129 439.08C390.21 439.106 390.294 439.122 390.378 439.128C390.618 439.144 390.857 439.081 391.059 438.95C391.26 438.819 391.414 438.626 391.498 438.401C391.581 438.175 391.589 437.929 391.52 437.698C391.452 437.467 391.311 437.265 391.118 437.121C391.051 437.072 390.977 437.032 390.9 437Z" fill="#4D8AF0"/>
<path opacity="0.5" d="M59.6339 280.541C59.1373 280.318 58.7397 279.921 58.5161 279.425C58.2925 278.929 58.2585 278.368 58.4205 277.848C58.4464 277.768 58.4627 277.684 58.469 277.6C58.4845 277.36 58.422 277.121 58.2909 276.919C58.1597 276.718 57.9668 276.564 57.7411 276.481C57.5153 276.398 57.2687 276.39 57.038 276.458C56.8073 276.526 56.6049 276.667 56.4608 276.86C56.412 276.928 56.3713 277.001 56.3395 277.078C56.1164 277.574 55.7192 277.972 55.2228 278.195C54.7265 278.419 54.1654 278.453 53.6457 278.291C53.565 278.265 53.4815 278.249 53.3969 278.242C53.1568 278.227 52.9181 278.289 52.7164 278.421C52.5147 278.552 52.3608 278.744 52.2776 278.97C52.1944 279.196 52.1863 279.442 52.2547 279.673C52.323 279.903 52.464 280.106 52.6567 280.25C52.7246 280.298 52.7979 280.339 52.8751 280.371C53.3717 280.594 53.7694 280.991 53.993 281.487C54.2166 281.983 54.2506 282.544 54.0886 283.064C54.0626 283.144 54.0463 283.228 54.04 283.312C54.0246 283.552 54.0871 283.791 54.2182 283.992C54.3494 284.194 54.5422 284.348 54.768 284.431C54.9938 284.514 55.2404 284.522 55.4711 284.454C55.7018 284.386 55.9042 284.245 56.0483 284.052C56.0971 283.984 56.1378 283.911 56.1696 283.834C56.3926 283.337 56.7899 282.94 57.2863 282.716C57.7826 282.493 58.3437 282.459 58.8634 282.621C58.9441 282.647 59.0276 282.663 59.1122 282.669C59.3523 282.685 59.5909 282.622 59.7926 282.491C59.9943 282.36 60.1483 282.167 60.2315 281.942C60.3147 281.716 60.3227 281.47 60.2544 281.239C60.1861 281.008 60.0451 280.806 59.8524 280.662C59.7845 280.613 59.7112 280.573 59.6339 280.541Z" fill="#4D8AF0"/>
<g opacity="0.5">
<path opacity="0.5" d="M468.438 451.433H467.54V456.521H468.438V451.433Z" fill="#47E6B1"/>
<path opacity="0.5" d="M470.531 454.423V453.525H465.441V454.423H470.531Z" fill="#47E6B1"/>
</g>
<path opacity="0.5" d="M475.573 388.219C476.565 388.219 477.369 387.415 477.369 386.424C477.369 385.432 476.565 384.628 475.573 384.628C474.581 384.628 473.777 385.432 473.777 386.424C473.777 387.415 474.581 388.219 475.573 388.219Z" fill="#4D8AF0"/>
<g opacity="0.5">
<path opacity="0.5" d="M465.465 345.059H463.645V355.368H465.465V345.059Z" fill="#47E6B1"/>
<path opacity="0.5" d="M469.712 351.123V349.304H459.398V351.123H469.712Z" fill="#47E6B1"/>
</g>
<path opacity="0.5" d="M423.766 339.365C423.519 339.256 423.321 339.061 423.209 338.816C423.098 338.571 423.08 338.294 423.159 338.036C423.164 337.996 423.164 337.955 423.159 337.915C423.165 337.798 423.133 337.682 423.068 337.583C423.003 337.485 422.909 337.411 422.798 337.37C422.688 337.329 422.567 337.325 422.454 337.358C422.341 337.39 422.242 337.458 422.17 337.551C422.146 337.585 422.125 337.622 422.109 337.66C422.001 337.907 421.805 338.105 421.561 338.216C421.316 338.328 421.038 338.346 420.781 338.267H420.659C420.542 338.261 420.426 338.293 420.327 338.358C420.229 338.423 420.155 338.517 420.114 338.627C420.073 338.738 420.069 338.858 420.102 338.971C420.134 339.084 420.202 339.184 420.295 339.255C420.329 339.28 420.366 339.3 420.404 339.316C420.651 339.425 420.849 339.62 420.961 339.865C421.073 340.109 421.091 340.387 421.011 340.644C421.007 340.684 421.007 340.725 421.011 340.765C421.005 340.883 421.037 340.999 421.102 341.097C421.167 341.195 421.262 341.27 421.372 341.311C421.482 341.351 421.603 341.355 421.716 341.323C421.829 341.29 421.928 341.222 422 341.129C422.025 341.095 422.045 341.059 422.061 341.02C422.169 340.774 422.365 340.576 422.61 340.464C422.855 340.352 423.132 340.334 423.39 340.414H423.511C423.628 340.419 423.745 340.388 423.843 340.323C423.941 340.258 424.016 340.163 424.056 340.053C424.097 339.943 424.101 339.822 424.069 339.709C424.036 339.596 423.968 339.497 423.875 339.425C423.841 339.401 423.804 339.38 423.766 339.365Z" fill="#4D8AF0"/>
<g opacity="0.5">
<path opacity="0.5" d="M426.635 368.71H424.815V379.019H426.635V368.71Z" fill="#47E6B1"/>
<path opacity="0.5" d="M430.882 374.774V372.955H420.568V374.774H430.882Z" fill="#47E6B1"/>
</g>
<path opacity="0.5" d="M463.099 417.594C462.602 417.371 462.205 416.974 461.981 416.478C461.757 415.982 461.723 415.421 461.885 414.902C461.911 414.821 461.928 414.737 461.934 414.653C461.949 414.413 461.887 414.174 461.756 413.973C461.625 413.771 461.432 413.617 461.206 413.534C460.98 413.451 460.734 413.443 460.503 413.511C460.272 413.579 460.07 413.72 459.926 413.913C459.877 413.981 459.836 414.054 459.804 414.131C459.581 414.628 459.184 415.025 458.688 415.249C458.191 415.472 457.63 415.506 457.111 415.344C457.03 415.318 456.946 415.302 456.862 415.296C456.622 415.28 456.383 415.343 456.181 415.474C455.98 415.605 455.826 415.798 455.743 416.023C455.659 416.249 455.651 416.495 455.72 416.726C455.788 416.957 455.929 417.159 456.122 417.303C456.19 417.352 456.263 417.392 456.34 417.424C456.837 417.647 457.234 418.044 457.458 418.54C457.682 419.037 457.716 419.597 457.554 420.117C457.528 420.197 457.511 420.281 457.505 420.365C457.49 420.605 457.552 420.844 457.683 421.046C457.814 421.247 458.007 421.401 458.233 421.484C458.459 421.567 458.705 421.575 458.936 421.507C459.167 421.439 459.369 421.298 459.513 421.105C459.562 421.037 459.603 420.964 459.635 420.887C459.858 420.391 460.255 419.993 460.751 419.77C461.248 419.546 461.809 419.512 462.328 419.674C462.409 419.7 462.493 419.716 462.577 419.723C462.817 419.738 463.056 419.676 463.258 419.545C463.459 419.413 463.613 419.221 463.696 418.995C463.78 418.769 463.788 418.523 463.719 418.292C463.651 418.062 463.51 417.859 463.317 417.715C463.249 417.667 463.176 417.626 463.099 417.594Z" fill="#4D8AF0"/>
<path opacity="0.5" d="M256.209 438.213C255.713 437.99 255.315 437.593 255.092 437.097C254.868 436.6 254.834 436.04 254.996 435.52C255.022 435.439 255.038 435.356 255.045 435.271C255.06 435.031 254.997 434.793 254.866 434.591C254.735 434.39 254.542 434.236 254.317 434.153C254.091 434.07 253.844 434.061 253.613 434.13C253.383 434.198 253.18 434.339 253.036 434.532C252.987 434.599 252.947 434.673 252.915 434.75C252.692 435.246 252.295 435.644 251.798 435.867C251.302 436.091 250.741 436.125 250.221 435.963C250.14 435.937 250.057 435.921 249.972 435.914C249.732 435.899 249.494 435.961 249.292 436.092C249.09 436.224 248.936 436.416 248.853 436.642C248.77 436.868 248.762 437.114 248.83 437.345C248.898 437.575 249.039 437.778 249.232 437.922C249.3 437.97 249.373 438.011 249.451 438.043C249.947 438.266 250.345 438.663 250.568 439.159C250.792 439.655 250.826 440.216 250.664 440.735C250.638 440.816 250.622 440.9 250.616 440.984C250.6 441.224 250.663 441.463 250.794 441.664C250.925 441.866 251.118 442.02 251.343 442.103C251.569 442.186 251.816 442.194 252.047 442.126C252.277 442.058 252.48 441.917 252.624 441.724C252.673 441.656 252.713 441.583 252.745 441.506C252.968 441.009 253.365 440.612 253.862 440.388C254.358 440.165 254.919 440.131 255.439 440.293C255.52 440.319 255.603 440.335 255.688 440.341C255.928 440.357 256.166 440.294 256.368 440.163C256.57 440.032 256.724 439.839 256.807 439.614C256.89 439.388 256.898 439.142 256.83 438.911C256.762 438.68 256.621 438.478 256.428 438.334C256.36 438.285 256.287 438.244 256.209 438.213Z" fill="#4D8AF0"/>
<g opacity="0.5">
<path opacity="0.1" d="M296.422 112.729C297.1 112.726 297.767 112.571 298.376 112.275C298.673 112.338 298.976 112.371 299.28 112.372C301.58 112.372 303.6 110.552 304.74 107.842C305.475 110.479 307.107 112.396 309.248 112.754C309.916 112.864 310.601 112.823 311.251 112.632C311.534 112.746 311.829 112.829 312.13 112.881C315.637 113.487 319.192 109.691 320.084 104.439C320.976 99.1878 318.871 94.4455 315.346 93.8572C314.678 93.7469 313.994 93.7883 313.344 93.9785C313.06 93.8651 312.765 93.7818 312.464 93.7299C309.637 93.2508 306.773 95.6219 305.311 99.309C304.389 95.6705 302.041 93.0749 299.292 93.0749C298.615 93.078 297.947 93.2334 297.339 93.5298C297.041 93.4661 296.738 93.4336 296.435 93.4327C292.879 93.4327 289.997 97.7505 289.997 103.081C289.997 108.412 292.867 112.729 296.422 112.729Z" fill="url(#paint1_linear)"/>
<path opacity="0.1" d="M315.282 120.464C317.079 117.998 317.535 115.27 316.3 114.371C315.065 113.472 312.607 114.742 310.81 117.208C309.013 119.674 308.558 122.402 309.792 123.301C311.027 124.201 313.485 122.93 315.282 120.464Z" fill="url(#paint2_linear)"/>
<path opacity="0.1" d="M331.169 103.117C330.544 102.855 329.868 102.737 329.191 102.772C328.942 102.597 328.676 102.449 328.396 102.329C325.126 100.94 320.782 103.791 318.689 108.691C316.596 113.59 317.566 118.697 320.837 120.085C321.461 120.348 322.138 120.466 322.814 120.431C323.063 120.606 323.33 120.754 323.609 120.874C326.879 122.262 331.224 119.412 333.317 114.512C335.41 109.612 334.439 104.506 331.169 103.117Z" fill="url(#paint3_linear)"/>
<path opacity="0.1" d="M324.233 129.872C326.552 127.899 327.631 125.358 326.642 124.198C325.654 123.038 322.973 123.697 320.654 125.67C318.334 127.644 317.256 130.185 318.244 131.345C319.232 132.505 321.914 131.846 324.233 129.872Z" fill="url(#paint4_linear)"/>
<path opacity="0.1" d="M280.721 112.875C281.022 112.823 281.317 112.74 281.6 112.626C282.25 112.816 282.935 112.858 283.603 112.748C287.109 112.141 289.227 107.417 288.341 102.165C287.455 96.9136 283.9 93.1053 280.387 93.7117C280.114 93.7587 279.845 93.8318 279.586 93.93H279.489C278.845 93.7423 278.167 93.7009 277.505 93.8087C273.998 94.4152 271.881 99.1392 272.767 104.391C273.652 109.643 277.226 113.469 280.721 112.875Z" fill="url(#paint5_linear)"/>
<path opacity="0.1" d="M282.492 118.211C280.672 115.755 277.032 115.386 277.032 115.386C277.032 115.386 276.261 119.024 278.057 121.45C279.853 123.876 282.304 125.173 283.518 124.276C284.731 123.378 284.288 120.674 282.492 118.211Z" fill="url(#paint6_linear)"/>
<path opacity="0.1" d="M320.733 133.093C319.501 133.136 318.27 132.97 317.093 132.602C317.481 131.431 317.632 130.194 317.536 128.963C317.348 125.931 314.442 123.633 314.442 123.633C313.59 124.548 312.915 125.613 312.452 126.774C312.008 126.686 311.557 126.646 311.105 126.653C310.164 126.658 309.224 126.717 308.29 126.829C308.685 125.289 308.618 123.667 308.096 122.165C307.313 119.606 304.631 118.096 303.988 117.769C303.999 116.56 303.794 115.358 303.381 114.221C303.381 114.221 299.808 115.198 298.449 117.92C297.09 120.643 297.084 123.378 298.449 124.082C299.571 124.646 301.27 123.615 302.599 121.711C302.549 122.408 302.625 123.108 302.823 123.779C303.197 125.106 303.876 126.327 304.807 127.344C302.321 127.86 299.786 128.102 297.248 128.066C298.182 127.065 298.042 124.628 296.835 122.214C295.47 119.491 291.902 118.515 291.902 118.515C291.902 118.515 290.537 121.953 291.902 124.676C292.426 125.759 293.153 126.731 294.044 127.538C293.264 127.316 292.507 127.022 291.781 126.659C290.97 126.26 290.117 125.951 289.239 125.737C289.575 125.116 289.848 124.461 290.052 123.785C290.944 120.874 289.027 117.72 289.027 117.72C289.027 117.72 285.665 119.273 284.78 122.19C284.471 123.17 284.32 124.194 284.331 125.222C281.402 125.305 278.497 125.785 275.697 126.647C298.212 168.472 285.338 197.411 285.338 197.411H304.643C291.787 162.038 330.386 133.093 320.733 133.093Z" fill="url(#paint7_linear)"/>
</g>
<path d="M297.969 169.74V109.903" stroke="#3AD29F" stroke-width="3" stroke-miterlimit="10"/>
<path d="M299.371 94.1544C298.709 94.1567 298.056 94.308 297.46 94.5971C297.169 94.534 296.872 94.5015 296.574 94.5001C293.092 94.5001 290.27 98.7451 290.27 103.948C290.27 109.151 293.092 113.396 296.574 113.396C297.236 113.394 297.889 113.243 298.485 112.954C298.776 113.017 299.073 113.049 299.371 113.051C302.854 113.051 305.675 108.806 305.675 103.603C305.675 98.3994 302.854 94.1544 299.371 94.1544Z" fill="#F55F44"/>
<path d="M303.391 120.936C304.725 118.27 304.725 115.568 303.391 114.902C302.058 114.235 299.895 115.856 298.561 118.522C297.227 121.188 297.227 123.889 298.561 124.556C299.894 125.223 302.057 123.602 303.391 120.936Z" fill="#3AD29F"/>
<path d="M296.968 128.689C298.301 128.022 298.301 125.321 296.967 122.655C295.633 119.989 293.471 118.368 292.137 119.034C290.804 119.701 290.804 122.403 292.138 125.069C293.472 127.735 295.634 129.356 296.968 128.689Z" fill="#3AD29F"/>
<path d="M301.137 169.212L311.093 110.213" stroke="#3AD29F" stroke-width="3" stroke-miterlimit="10"/>
<path d="M315.091 94.9245C314.437 94.8173 313.767 94.8588 313.131 95.0458C312.853 94.9351 312.565 94.8538 312.27 94.8033C308.836 94.1968 305.353 97.9264 304.486 103.069C303.618 108.211 305.699 112.857 309.127 113.433C309.781 113.54 310.451 113.499 311.087 113.312C311.365 113.422 311.653 113.504 311.948 113.554C315.382 114.161 318.865 110.431 319.732 105.288C320.6 100.146 318.525 95.4946 315.091 94.9245Z" fill="#F55F44"/>
<path d="M314.574 121.954C316.333 119.547 316.782 116.883 315.578 116.004C314.374 115.125 311.972 116.364 310.213 118.771C308.455 121.179 308.005 123.843 309.209 124.722C310.413 125.601 312.815 124.362 314.574 121.954Z" fill="#3AD29F"/>
<path d="M306.975 128.608C308.401 128.173 308.851 125.509 307.979 122.658C307.108 119.807 305.246 117.849 303.82 118.285C302.394 118.72 301.944 121.384 302.815 124.235C303.687 127.086 305.549 129.044 306.975 128.608Z" fill="#3AD29F"/>
<path d="M299.729 173.009L323.142 117.939" stroke="#3AD29F" stroke-width="3" stroke-miterlimit="10"/>
<path d="M330.617 104.021C330.005 103.764 329.344 103.648 328.681 103.681C328.438 103.509 328.178 103.363 327.905 103.245C324.671 101.856 320.424 104.627 318.379 109.479C316.335 114.33 317.281 119.279 320.485 120.637C321.096 120.894 321.758 121.011 322.42 120.977C322.663 121.149 322.923 121.295 323.197 121.413C326.4 122.772 330.653 119.982 332.692 115.179C334.73 110.376 333.796 105.349 330.617 104.021Z" fill="#F55F44"/>
<path d="M323.802 130.189C326.072 128.257 327.129 125.77 326.163 124.635C325.196 123.501 322.572 124.147 320.301 126.079C318.03 128.012 316.973 130.498 317.94 131.633C318.906 132.768 321.531 132.121 323.802 130.189Z" fill="#3AD29F"/>
<path d="M314.849 134.891C316.337 134.799 317.394 132.313 317.21 129.338C317.026 126.363 315.67 124.025 314.182 124.117C312.694 124.209 311.636 126.696 311.821 129.671C312.005 132.646 313.36 134.983 314.849 134.891Z" fill="#3AD29F"/>
<path d="M292.012 169.212L282.049 110.213" stroke="#3AD29F" stroke-width="3" stroke-miterlimit="10"/>
<path d="M278.045 94.9245C278.699 94.8173 279.369 94.8588 280.005 95.0458C280.283 94.9351 280.571 94.8538 280.866 94.8033C284.3 94.1968 287.783 97.9264 288.65 103.069C289.518 108.211 287.437 112.857 284.009 113.433C283.355 113.54 282.685 113.499 282.049 113.312C281.771 113.422 281.483 113.504 281.188 113.554C277.754 114.161 274.271 110.431 273.404 105.288C272.536 100.146 274.617 95.4946 278.045 94.9245Z" fill="#F55F44"/>
<path d="M283.932 124.727C285.136 123.848 284.686 121.184 282.927 118.777C281.169 116.369 278.767 115.131 277.563 116.01C276.358 116.888 276.808 119.552 278.567 121.96C280.325 124.367 282.727 125.606 283.932 124.727Z" fill="#3AD29F"/>
<path d="M290.009 122.422C290.874 119.56 290.415 116.89 288.983 116.458C287.552 116.026 285.69 117.995 284.825 120.857C283.96 123.718 284.42 126.388 285.851 126.821C287.283 127.253 289.144 125.283 290.009 122.422Z" fill="#3AD29F"/>
<path d="M276.267 127.065C276.267 127.065 285.72 123.918 292.042 127.065C298.364 130.213 304.643 127.065 310.947 127.065C317.251 127.065 310.947 133.366 320.4 133.366C329.852 133.366 292.042 161.711 304.625 196.35H285.72C285.72 196.35 298.321 167.987 276.267 127.065Z" fill="#F5F5F5"/>
<path opacity="0.1" d="M279.155 95.246L280.241 98.4964L280.842 94.8215L279.155 95.246Z" fill="black"/>
<path opacity="0.1" d="M296.513 95.1247L297.599 98.3751L298.2 94.7002L296.513 95.1247Z" fill="black"/>
<path opacity="0.1" d="M312.476 95.5492L313.046 98.9331L314.205 95.3915L312.476 95.5492Z" fill="black"/>
<path opacity="0.1" d="M327.887 103.76L327.589 107.174L329.604 104.045L327.887 103.76Z" fill="black"/>
<path opacity="0.1" d="M287.291 126.15C287.291 126.15 293.261 152.178 293.261 161.929C293.261 171.68 291.635 196.089 291.635 196.089H293.807C293.807 196.089 291.629 130.486 290.574 126.689L287.291 126.15Z" fill="black"/>
<path opacity="0.1" d="M300.851 128.315C300.851 128.315 295.427 152.172 295.427 161.935C295.427 171.699 297.053 196.095 297.053 196.095H294.881C294.881 196.095 296.507 132.657 297.593 128.86L300.851 128.315Z" fill="black"/>
<path opacity="0.1" d="M305.742 127.775C305.742 127.775 299.771 152.172 299.771 161.935C299.771 171.699 301.398 196.095 301.398 196.095H299.225C299.225 196.095 301.397 132.117 302.477 128.321L305.742 127.775Z" fill="black"/>
<g opacity="0.5">
<path opacity="0.5" d="M306.773 160.183C304.006 151.887 287.558 163.099 287.558 163.099L286.205 164.919L256.962 204.434L185.327 164.409V146.501C188.7 146.128 191.962 145.069 194.91 143.389C197.858 141.708 200.432 139.443 202.471 136.732C204.511 134.02 205.974 130.92 206.771 127.623C207.567 124.325 207.68 120.899 207.102 117.557C210.706 116.168 213.642 113.172 216.348 110.279C218.842 107.629 221.511 104.415 221.257 100.886C221.297 100.322 221.265 99.7553 221.16 99.1999C220.589 96.2223 217.895 94.0513 215.044 93.0143C212.192 91.9773 209.11 91.8014 206.131 91.195C199.033 89.8063 192.62 86.101 185.697 84.0028C182.553 83.0573 179.317 82.4474 176.044 82.1835C173.696 81.9894 171.251 81.9894 169.103 82.9536C166.749 84.0149 165.044 86.0889 163.152 87.8536C160.863 89.983 158.224 91.7003 155.349 92.9294C151.06 94.7487 146.248 95.4946 142.384 98.0659C141.311 98.712 140.413 99.6116 139.769 100.686C139.204 101.841 138.963 103.128 139.071 104.409C139.054 105.538 139.139 106.667 139.326 107.781C140.005 112.535 140.788 117.405 143.197 121.559C145.162 124.955 148.105 127.66 150.993 130.316L157.491 136.271C158.807 137.484 160.264 138.976 161.962 139.576C161.853 138.788 162.302 137.957 162.97 137.15L160.864 151.862C156.945 150.643 152.871 149.995 148.766 149.94C143.233 149.873 137.633 150.874 135.212 154.64C135.071 154.868 134.947 155.108 134.842 155.355C127.216 164.403 109.736 193.706 120.014 264.877C119.134 273.585 118.607 279.097 118.607 279.097L118.667 279.971L118.607 280.632L118.728 280.729L124.449 359.328L113.413 436.757H115.84V445.362H113.073V459.189C113.073 459.189 151.503 456.733 157.363 448.128C162.217 440.99 138.058 443.792 129.691 444.956V439.68H129.843V436.763H132.761L143.822 384.192C155.198 364.525 149.355 315.356 149.355 315.356L163.164 323.67L174.23 381.445L165.961 467.182H168.418V473.173H165.19V487C165.19 487 203.619 484.544 209.48 475.939C214.334 468.801 190.187 471.603 181.82 472.767L180.892 467.182H182.579L193.645 389.741C199.105 368.758 191.661 307.193 190.678 299.31L204.408 208.739L204.214 208.479L204.408 207.199L259.747 226.562C259.747 226.562 265.28 232.093 270.971 215.647C276.286 200.28 290.865 179.679 292.752 177.053L292.952 176.774C292.952 176.774 309.54 168.478 306.773 160.183Z" fill="url(#paint8_linear)"/>
</g>
<path d="M118.315 430.08V443.543H131.784V424.689L118.315 430.08Z" fill="#FDA57D"/>
<path d="M169.51 457.012V473.167L182.985 470.475L180.291 454.319L169.51 457.012Z" fill="#FDA57D"/>
<path d="M140.018 155.507C140.018 155.507 107.862 179.594 123.703 273.864L140.018 155.507Z" fill="#F55F44"/>
<path d="M140.018 155.507C140.018 155.507 107.862 179.594 123.703 273.864L140.018 155.507Z" fill="#3AD29F"/>
<path opacity="0.05" d="M181.784 465.241L180.437 457.158L169.662 459.85V465.241H181.784Z" fill="black"/>
<path opacity="0.05" d="M118.461 435.611H131.936V427.533L118.461 432.919V435.611Z" fill="black"/>
<path d="M164.42 139.497L161.726 158.351L185.976 171.82V144.882L164.42 139.497Z" fill="#FDA57D"/>
<path d="M115.919 432.767L126.7 357.351L121.009 279.279L191.073 298.079C191.073 298.079 199.755 365.114 194.064 386.957L183.282 462.421H167.113L175.195 378.928L164.413 322.669L150.938 314.592C150.938 314.592 156.629 362.5 145.551 381.627L134.782 432.767H115.919Z" fill="#FB3523"/>
<path d="M304.237 163.451C301.543 155.374 285.526 166.295 285.526 166.295L284.209 168.078L290.574 179.873L290.774 179.6C290.774 179.6 306.955 171.517 304.237 163.451Z" fill="#FDA57D"/>
<path opacity="0.05" d="M164.122 156.853C164.122 156.853 142.566 151.165 137.178 159.546C131.79 167.927 121.009 280.747 121.009 280.747C121.009 280.747 153.044 307.679 191.066 299.601L204.542 210.722L164.122 156.853Z" fill="black"/>
<path d="M255.736 206.508L170.572 158.964C164.399 155.491 157.456 153.615 150.374 153.506C144.987 153.439 139.532 154.415 137.178 158.078C131.784 166.429 121.009 279.279 121.009 279.279C121.009 279.279 153.044 306.181 191.073 298.079L204.542 209.225L258.418 228.078C258.418 228.078 263.805 233.464 269.339 217.454C274.514 202.487 288.711 182.432 290.574 179.855L284.203 168.066L255.736 206.508Z" fill="#3AD29F"/>
<path opacity="0.05" d="M164.056 143.682C166.321 146.574 169.217 148.913 172.522 150.521C175.827 152.129 179.455 152.963 183.131 152.96C184.031 152.959 184.93 152.908 185.824 152.808V147.575L164.268 142.19L164.056 143.682Z" fill="black"/>
<path d="M183.282 150.273C196.675 150.273 207.533 139.421 207.533 126.034C207.533 112.648 196.675 101.795 183.282 101.795C169.889 101.795 159.032 112.648 159.032 126.034C159.032 139.421 169.889 150.273 183.282 150.273Z" fill="#FDA57D"/>
<path d="M115.615 441.148V454.617C115.615 454.617 153.038 452.221 158.729 443.84C164.42 435.459 129.091 441.148 129.091 441.148H115.615Z" fill="#333333"/>
<path d="M166.367 468.231V481.7C166.367 481.7 203.814 479.304 209.48 470.911C215.147 462.518 179.842 468.219 179.842 468.219L166.367 468.231Z" fill="#333333"/>
<path opacity="0.05" d="M167.902 137.138L177.379 123.584C178.781 121.577 180.218 119.534 182.184 118.066C184.15 116.598 186.759 115.78 189.089 116.532C190.496 116.987 191.667 117.957 192.862 118.824C196.4 121.395 200.75 123.306 205.076 122.529C209.583 121.717 213.048 118.199 216.184 114.864C218.787 112.099 221.584 108.703 220.868 104.973C220.31 102.074 217.689 99.964 214.91 98.9513C212.132 97.9385 209.134 97.7748 206.234 97.2047C199.324 95.8524 193.075 92.2441 186.334 90.2005C183.273 89.2633 180.12 88.6535 176.93 88.3812C174.643 88.1932 172.258 88.1932 170.171 89.1331C167.878 90.1641 166.215 92.1653 164.377 93.9058C162.149 95.979 159.579 97.6512 156.781 98.8482C152.607 100.631 147.941 101.347 144.155 103.851C143.112 104.481 142.239 105.358 141.613 106.404C140.642 108.224 140.891 110.395 141.182 112.42C141.844 117.047 142.602 121.789 144.95 125.834C146.867 129.139 149.725 131.777 152.546 134.361L158.874 140.164C160.154 141.341 161.574 142.796 163.23 143.384C162.933 141.304 166.707 138.848 167.902 137.138Z" fill="black"/>
<path d="M167.902 136.241L177.379 122.687C178.781 120.68 180.218 118.636 182.184 117.168C184.15 115.701 186.759 114.882 189.089 115.634C190.496 116.089 191.667 117.059 192.862 117.926C196.4 120.498 200.75 122.408 205.076 121.632C209.583 120.819 213.048 117.302 216.184 113.966C218.787 111.201 221.584 107.805 220.868 104.076C220.31 101.177 217.689 99.0665 214.91 98.0537C212.132 97.041 209.134 96.8772 206.234 96.3072C199.324 94.9549 193.075 91.3466 186.334 89.3029C183.273 88.3658 180.12 87.7559 176.93 87.4836C174.643 87.2956 172.258 87.2957 170.171 88.2356C167.878 89.2665 166.215 91.2678 164.377 93.0082C162.15 95.0836 159.58 96.7579 156.781 97.9567C152.607 99.7396 147.941 100.455 144.155 102.96C143.112 103.59 142.239 104.467 141.613 105.513C140.642 107.332 140.891 109.503 141.182 111.529C141.844 116.156 142.602 120.898 144.95 124.943C146.867 128.248 149.725 130.886 152.546 133.469L158.874 139.273C160.154 140.449 161.574 141.905 163.23 142.493C162.933 140.407 166.707 137.951 167.902 136.241Z" fill="#333333"/>
<defs>
<linearGradient id="paint0_linear" x1="353.265" y1="403.949" x2="353.265" y2="1.32192e-05" gradientUnits="userSpaceOnUse">
<stop stop-color="#808080" stop-opacity="0.25"/>
<stop offset="0.54" stop-color="#808080" stop-opacity="0.12"/>
<stop offset="1" stop-color="#808080" stop-opacity="0.1"/>
</linearGradient>
<linearGradient id="paint1_linear" x1="21342.7" y1="4756.49" x2="21342.7" y2="4105.75" gradientUnits="userSpaceOnUse">
<stop stop-color="#808080" stop-opacity="0.25"/>
<stop offset="0.54" stop-color="#808080" stop-opacity="0.12"/>
<stop offset="1" stop-color="#808080" stop-opacity="0.1"/>
</linearGradient>
<linearGradient id="paint2_linear" x1="8122.18" y1="1510.55" x2="8122.07" y2="1426.72" gradientUnits="userSpaceOnUse">
<stop stop-color="#808080" stop-opacity="0.25"/>
<stop offset="0.54" stop-color="#808080" stop-opacity="0.12"/>
<stop offset="1" stop-color="#808080" stop-opacity="0.1"/>
</linearGradient>
<linearGradient id="paint3_linear" x1="12599.2" y1="4882.52" x2="12599.2" y2="4271.41" gradientUnits="userSpaceOnUse">
<stop stop-color="#808080" stop-opacity="0.25"/>
<stop offset="0.54" stop-color="#808080" stop-opacity="0.12"/>
<stop offset="1" stop-color="#808080" stop-opacity="0.1"/>
</linearGradient>
<linearGradient id="paint4_linear" x1="8294.11" y1="1592.75" x2="8294.11" y2="1522" gradientUnits="userSpaceOnUse">
<stop stop-color="#808080" stop-opacity="0.25"/>
<stop offset="0.54" stop-color="#808080" stop-opacity="0.12"/>
<stop offset="1" stop-color="#808080" stop-opacity="0.1"/>
</linearGradient>
<linearGradient id="paint5_linear" x1="10729.3" y1="4620.43" x2="10729.3" y2="4007.47" gradientUnits="userSpaceOnUse">
<stop stop-color="#808080" stop-opacity="0.25"/>
<stop offset="0.54" stop-color="#808080" stop-opacity="0.12"/>
<stop offset="1" stop-color="#808080" stop-opacity="0.1"/>
</linearGradient>
<linearGradient id="paint6_linear" x1="5075.58" y1="2445.01" x2="5075.58" y2="2305.91" gradientUnits="userSpaceOnUse">
<stop stop-color="#808080" stop-opacity="0.25"/>
<stop offset="0.54" stop-color="#808080" stop-opacity="0.12"/>
<stop offset="1" stop-color="#808080" stop-opacity="0.1"/>
</linearGradient>
<linearGradient id="paint7_linear" x1="32194" y1="31228.2" x2="32194" y2="19816.1" gradientUnits="userSpaceOnUse">
<stop stop-color="#808080" stop-opacity="0.25"/>
<stop offset="0.54" stop-color="#808080" stop-opacity="0.12"/>
<stop offset="1" stop-color="#808080" stop-opacity="0.1"/>
</linearGradient>
<linearGradient id="paint8_linear" x1="73536.5" y1="209708" x2="135573" y2="209708" gradientUnits="userSpaceOnUse">
<stop stop-color="#808080" stop-opacity="0.25"/>
<stop offset="0.54" stop-color="#808080" stop-opacity="0.12"/>
<stop offset="1" stop-color="#808080" stop-opacity="0.1"/>
</linearGradient>
</defs>
</svg>
