<svg width="108" height="18" viewBox="0 0 108 18" fill="none" xmlns="http://www.w3.org/2000/svg">
<path d="M5.08368 17.3418C3.47456 17.3418 2.29264 16.9359 1.53792 16.1242C0.7832 15.3126 0.40584 13.9669 0.40584 12.0872C0.40584 10.592 0.65504 8.98288 1.15344 7.25984C1.66608 5.5368 2.47776 4.06296 3.58848 2.83832C4.71344 1.59944 6.13744 0.979998 7.86048 0.979998C8.92848 0.979998 9.79 1.21496 10.445 1.68488C11.1001 2.1548 11.4276 2.87392 11.4276 3.84224C11.4276 4.45456 11.3066 4.93872 11.0645 5.29472C10.8224 5.63648 10.445 5.80736 9.9324 5.80736C9.41976 5.80736 9.01392 5.62224 8.71488 5.252C8.9712 5.12384 9.19904 4.86752 9.3984 4.48304C9.59776 4.09856 9.69744 3.69984 9.69744 3.28688C9.69744 2.9024 9.59064 2.58912 9.37704 2.34704C9.17768 2.10496 8.85016 1.98392 8.39448 1.98392C7.63976 1.98392 6.92064 2.50368 6.23712 3.5432C5.5536 4.56848 4.99824 5.86432 4.57104 7.43072C4.15808 8.99712 3.9516 10.5066 3.9516 11.959C3.9516 13.0413 4.13672 13.8672 4.50696 14.4368C4.8772 15.0064 5.54648 15.2912 6.5148 15.2912C7.35496 15.2912 8.13104 15.1061 8.84304 14.7358C9.55504 14.3656 10.1674 13.8387 10.68 13.1552L11.1713 13.3688C10.8153 14.2659 10.2884 15.0135 9.59064 15.6116C8.89288 16.2097 8.14528 16.6511 7.34784 16.9359C6.5504 17.2065 5.79568 17.3418 5.08368 17.3418ZM13.1806 17.1282C12.3689 17.1282 11.6925 16.8505 11.1514 16.2951C10.6103 15.7398 10.3397 14.8711 10.3397 13.6892C10.3397 12.6354 10.5462 11.5318 10.9592 10.3784C11.3864 9.21072 12.0129 8.22816 12.8389 7.43072C13.679 6.61904 14.6758 6.2132 15.8293 6.2132C16.4131 6.2132 16.8474 6.31288 17.1322 6.51224C17.417 6.7116 17.5594 6.97504 17.5594 7.30256V7.45208L17.7944 6.32H20.8702L19.3323 13.5824C19.2753 13.796 19.2469 14.0238 19.2469 14.2659C19.2469 14.8782 19.5388 15.1844 20.1226 15.1844C20.5213 15.1844 20.8631 14.9993 21.1479 14.629C21.4469 14.2588 21.6819 13.7746 21.8528 13.1766H22.7499C22.223 14.7145 21.568 15.7611 20.7848 16.3165C20.0158 16.8576 19.2397 17.1282 18.4565 17.1282C17.8585 17.1282 17.3743 16.9644 17.0041 16.6369C16.6481 16.2951 16.4345 15.8038 16.3633 15.163C15.9503 15.7469 15.4875 16.2239 14.9749 16.5942C14.4765 16.9502 13.8784 17.1282 13.1806 17.1282ZM14.569 15.0562C14.925 15.0562 15.2739 14.8925 15.6157 14.565C15.9717 14.2232 16.2137 13.7604 16.3419 13.1766L17.3672 8.3492C17.3672 8.16408 17.296 7.98608 17.1536 7.8152C17.0112 7.63008 16.7905 7.53752 16.4914 7.53752C15.9218 7.53752 15.4092 7.87216 14.9535 8.54144C14.4978 9.19648 14.1418 9.99392 13.8855 10.9338C13.6292 11.8594 13.501 12.6782 13.501 13.3902C13.501 14.1022 13.6007 14.5578 13.8001 14.7572C14.0137 14.9566 14.27 15.0562 14.569 15.0562ZM23.3131 6.32H26.3889L26.1113 7.64432C26.5954 7.21712 27.0297 6.8896 27.4142 6.66176C27.8129 6.43392 28.2401 6.32 28.6958 6.32C29.1515 6.32 29.5075 6.47664 29.7638 6.78992C30.0344 7.1032 30.1697 7.48056 30.1697 7.922C30.1697 8.33496 30.0344 8.69808 29.7638 9.01136C29.4933 9.32464 29.1159 9.48128 28.6317 9.48128C28.3185 9.48128 28.1049 9.41008 27.9909 9.26768C27.8913 9.11104 27.8129 8.89032 27.756 8.60552C27.7133 8.4204 27.6705 8.28512 27.6278 8.19968C27.5851 8.11424 27.5068 8.07152 27.3929 8.07152C27.0938 8.07152 26.8375 8.1356 26.6239 8.26376C26.4245 8.37768 26.1611 8.58416 25.8336 8.8832L24.1248 17H21.0489L23.3131 6.32ZM32.9032 17.1282C31.8637 17.1282 31.052 16.8576 30.4682 16.3165C29.8844 15.7611 29.5924 14.8996 29.5924 13.7319C29.5924 12.7494 29.7847 11.6671 30.1692 10.4852C30.5536 9.30328 31.1802 8.28512 32.0488 7.43072C32.9175 6.56208 34.0211 6.12776 35.3596 6.12776C36.926 6.12776 37.7092 6.81128 37.7092 8.17832C37.7092 8.97576 37.4814 9.70912 37.0257 10.3784C36.57 11.0477 35.9648 11.5888 35.2101 12.0018C34.4554 12.4005 33.6508 12.6283 32.7964 12.6853C32.768 12.9986 32.7537 13.2122 32.7537 13.3261C32.7537 14.508 33.1952 15.099 34.078 15.099C34.4768 15.099 34.904 14.9922 35.3596 14.7786C35.8153 14.565 36.2283 14.2944 36.5985 13.9669C36.214 16.0744 34.9823 17.1282 32.9032 17.1282ZM32.946 11.66C33.4871 11.6458 33.9926 11.4678 34.4625 11.126C34.9467 10.7842 35.3312 10.3499 35.616 9.82304C35.915 9.28192 36.0645 8.71944 36.0645 8.1356C36.0645 7.55176 35.8865 7.25984 35.5305 7.25984C35.0321 7.25984 34.5337 7.71552 34.0353 8.62688C33.5512 9.524 33.188 10.535 32.946 11.66ZM42.947 2.4752C41.9929 2.87392 41.2524 3.472 40.7255 4.26944C40.2129 5.06688 39.9566 6.02808 39.9566 7.15304C39.9566 7.67992 40.0064 8.05016 40.1061 8.26376C40.2058 8.46312 40.2556 8.57704 40.2556 8.60552C39.4866 8.60552 38.9099 8.44888 38.5254 8.1356C38.1552 7.80808 37.9701 7.27408 37.9701 6.5336C37.9701 5.62224 38.3403 4.73936 39.0808 3.88496C39.8355 3.01632 40.7967 2.31856 41.9644 1.79168C43.1321 1.25056 44.2998 0.979998 45.4674 0.979998C45.6668 0.979998 45.9516 0.994239 46.3218 1.02272L44.9548 7.388H48.0947L49.4618 1.02272H52.5376L49.1414 17H46.0655L47.7743 8.96864H44.6344L42.9256 17H39.8498L42.947 2.4752ZM54.4822 17.1282C53.6705 17.1282 52.9941 16.8505 52.453 16.2951C51.9119 15.7398 51.6413 14.8711 51.6413 13.6892C51.6413 12.6354 51.8478 11.5318 52.2607 10.3784C52.6879 9.21072 53.3145 8.22816 54.1404 7.43072C54.9806 6.61904 55.9774 6.2132 57.1308 6.2132C57.7147 6.2132 58.149 6.31288 58.4338 6.51224C58.7186 6.7116 58.861 6.97504 58.861 7.30256V7.45208L59.0959 6.32H62.1718L60.6339 13.5824C60.5769 13.796 60.5484 14.0238 60.5484 14.2659C60.5484 14.8782 60.8403 15.1844 61.4242 15.1844C61.8229 15.1844 62.1647 14.9993 62.4495 14.629C62.7485 14.2588 62.9835 13.7746 63.1543 13.1766H64.0515C63.5246 14.7145 62.8695 15.7611 62.0863 16.3165C61.3174 16.8576 60.5413 17.1282 59.7581 17.1282C59.16 17.1282 58.6759 16.9644 58.3056 16.6369C57.9496 16.2951 57.736 15.8038 57.6648 15.163C57.2519 15.7469 56.7891 16.2239 56.2764 16.5942C55.778 16.9502 55.1799 17.1282 54.4822 17.1282ZM55.8706 15.0562C56.2266 15.0562 56.5755 14.8925 56.9172 14.565C57.2732 14.2232 57.5153 13.7604 57.6435 13.1766L58.6687 8.3492C58.6687 8.16408 58.5975 7.98608 58.4551 7.8152C58.3127 7.63008 58.092 7.53752 57.793 7.53752C57.2234 7.53752 56.7107 7.87216 56.2551 8.54144C55.7994 9.19648 55.4434 9.99392 55.1871 10.9338C54.9307 11.8594 54.8026 12.6782 54.8026 13.3902C54.8026 14.1022 54.9023 14.5578 55.1016 14.7572C55.3152 14.9566 55.5715 15.0562 55.8706 15.0562ZM70.8732 17.1282C70.0045 17.1282 69.3637 16.9003 68.9508 16.4446C68.552 15.9747 68.3527 15.398 68.3527 14.7145C68.3527 14.4154 68.3883 14.0808 68.4595 13.7106C68.5307 13.3261 68.6019 12.9558 68.6731 12.5998C68.7585 12.2438 68.8155 12.016 68.8439 11.9163C68.9579 11.4179 69.0647 10.9266 69.1644 10.4425C69.264 9.95832 69.3139 9.56672 69.3139 9.26768C69.3139 8.54144 69.0575 8.17832 68.5449 8.17832C68.1747 8.17832 67.8471 8.36344 67.5623 8.73368C67.2775 9.08968 67.0497 9.5596 66.8788 10.1434L65.4263 17H62.3505L64.6147 6.32H67.6905L67.4555 7.43072C68.1675 6.63328 69.0006 6.23456 69.9547 6.23456C70.6809 6.23456 71.2576 6.43392 71.6848 6.83264C72.112 7.23136 72.3256 7.83656 72.3256 8.64824C72.3256 9.0612 72.2758 9.524 72.1761 10.0366C72.0764 10.535 71.934 11.1474 71.7489 11.8736C71.635 12.315 71.5282 12.7494 71.4285 13.1766C71.3431 13.5895 71.3003 13.917 71.3003 14.1591C71.3003 14.4439 71.3644 14.6646 71.4926 14.8213C71.6208 14.9779 71.8415 15.0562 72.1548 15.0562C72.582 15.0562 72.9237 14.9067 73.18 14.6077C73.4364 14.2944 73.6927 13.8174 73.949 13.1766H74.8461C74.3192 14.743 73.7069 15.7967 73.0092 16.3378C72.3256 16.8647 71.6136 17.1282 70.8732 17.1282ZM76.5097 17.1282C75.698 17.1282 75.0216 16.8505 74.4805 16.2951C73.9394 15.7398 73.6688 14.8711 73.6688 13.6892C73.6688 12.6354 73.8753 11.5318 74.2882 10.3784C74.7154 9.21072 75.342 8.22816 76.1679 7.43072C77.0081 6.61904 78.0049 6.2132 79.1583 6.2132C79.7422 6.2132 80.1765 6.31288 80.4613 6.51224C80.7461 6.7116 80.8885 6.97504 80.8885 7.30256V7.388L81.9351 2.4752L85.0964 2.048L82.64 13.5824C82.583 13.796 82.5546 14.0238 82.5546 14.2659C82.5546 14.5507 82.6186 14.7572 82.7468 14.8854C82.8892 14.9993 83.117 15.0562 83.4303 15.0562C83.829 15.0562 84.1708 14.8854 84.4556 14.5436C84.7546 14.2018 84.9896 13.7462 85.1605 13.1766H86.0576C85.189 15.7255 83.7578 17 81.7642 17C81.1804 17 80.7034 16.8434 80.3331 16.5301C79.9771 16.2168 79.7564 15.7611 79.671 15.163C79.3007 15.7326 78.8522 16.2026 78.3253 16.5728C77.8126 16.943 77.2074 17.1282 76.5097 17.1282ZM77.8981 15.0562C78.2398 15.0562 78.5816 14.8996 78.9234 14.5863C79.2794 14.273 79.5214 13.8387 79.6496 13.2834V13.1766L80.6962 8.28512C80.5681 7.78672 80.2762 7.53752 79.8205 7.53752C79.2509 7.53752 78.7382 7.87216 78.2826 8.54144C77.8269 9.19648 77.4709 9.99392 77.2146 10.9338C76.9582 11.8594 76.8301 12.6782 76.8301 13.3902C76.8301 14.1022 76.9298 14.5578 77.1291 14.7572C77.3427 14.9566 77.599 15.0562 77.8981 15.0562ZM87.2835 17.1282C86.6 17.1282 86.0446 16.9146 85.6174 16.4874C85.2044 16.0602 84.998 15.4194 84.998 14.565C84.998 14.209 85.0549 13.7462 85.1688 13.1766L87.4544 2.4752L90.6156 2.048L88.1592 13.5824C88.1023 13.796 88.0738 14.0238 88.0738 14.2659C88.0738 14.5507 88.1379 14.7572 88.266 14.8854C88.4084 14.9993 88.6363 15.0562 88.9496 15.0562C89.3625 15.0562 89.747 14.8854 90.103 14.5436C90.459 14.1876 90.7153 13.7319 90.872 13.1766H91.7691C91.2422 14.7145 90.5658 15.7611 89.7399 16.3165C88.914 16.8576 88.0952 17.1282 87.2835 17.1282ZM93.9179 17.1282C92.8642 17.1282 92.0454 16.8576 91.4615 16.3165C90.8777 15.7611 90.5858 14.8996 90.5858 13.7319C90.5858 12.7494 90.778 11.6671 91.1625 10.4852C91.547 9.30328 92.1735 8.28512 93.0422 7.43072C93.9108 6.56208 95.0144 6.12776 96.353 6.12776C97.9194 6.12776 98.7026 6.81128 98.7026 8.17832C98.7026 8.97576 98.4747 9.70912 98.019 10.3784C97.5634 11.0477 96.9582 11.5888 96.2034 12.0018C95.4487 12.4005 94.6442 12.6283 93.7898 12.6853C93.7613 13.1125 93.747 13.3973 93.747 13.5397C93.747 14.2374 93.8681 14.7145 94.1102 14.9708C94.3522 15.2129 94.7438 15.3339 95.285 15.3339C96.0539 15.3339 96.709 15.1559 97.2501 14.7999C97.8054 14.4439 98.4106 13.9028 99.0657 13.1766H99.7919C98.2113 15.811 96.2533 17.1282 93.9179 17.1282ZM93.9606 11.66C94.4875 11.6315 94.9859 11.4464 95.4558 11.1046C95.94 10.7629 96.3245 10.3286 96.6093 9.80168C96.9083 9.2748 97.0578 8.71944 97.0578 8.1356C97.0578 7.55176 96.8798 7.25984 96.5238 7.25984C96.0112 7.25984 95.5057 7.7084 95.0073 8.60552C94.5231 9.50264 94.1742 10.5208 93.9606 11.66ZM100.514 6.32H103.589L103.312 7.64432C103.796 7.21712 104.23 6.8896 104.615 6.66176C105.013 6.43392 105.441 6.32 105.896 6.32C106.352 6.32 106.708 6.47664 106.964 6.78992C107.235 7.1032 107.37 7.48056 107.37 7.922C107.37 8.33496 107.235 8.69808 106.964 9.01136C106.694 9.32464 106.316 9.48128 105.832 9.48128C105.519 9.48128 105.305 9.41008 105.191 9.26768C105.092 9.11104 105.013 8.89032 104.957 8.60552C104.914 8.4204 104.871 8.28512 104.828 8.19968C104.786 8.11424 104.707 8.07152 104.593 8.07152C104.294 8.07152 104.038 8.1356 103.824 8.26376C103.625 8.37768 103.362 8.58416 103.034 8.8832L101.325 17H98.2495L100.514 6.32Z" fill="black"/>
</svg>
