<svg width="687" height="301" viewBox="0 0 687 301" fill="none" xmlns="http://www.w3.org/2000/svg">
<path d="M362.16 59.3842C357.996 57.3023 353.832 54.608 349.668 51.3014C345.504 47.9336 343.422 43.586 343.422 38.2587C343.483 33.1151 345.596 28.8594 349.76 25.4915C353.924 22.0625 359.557 20.3479 366.66 20.3479C369.783 20.3479 372.998 20.8072 376.304 21.7257C379.672 22.583 382.581 23.8382 385.03 25.4915L380.07 36.7891C376.764 35.6257 374.253 34.8909 372.539 34.5847C370.824 34.2173 368.926 34.0336 366.844 34.0336C364.946 34.0336 363.445 34.4928 362.343 35.4113C361.241 36.2686 360.69 37.279 360.69 38.4424C360.69 39.7895 361.608 40.9836 363.445 42.0245C365.344 43.0043 367.579 44.1677 370.151 45.5148C374.559 47.7805 378.815 50.6278 382.918 54.0569C387.02 57.486 389.072 61.7417 389.072 66.824C389.072 72.0901 386.837 76.4683 382.367 79.9586C377.958 83.4489 371.896 85.1941 364.18 85.1941C360.996 85.1941 357.383 84.7348 353.342 83.8163C349.362 82.8366 346.147 81.6119 343.698 80.1423L349.209 67.5588C350.801 68.5386 353.036 69.4571 355.914 70.3143C358.853 71.1104 361.455 71.5084 363.721 71.5084C366.354 71.5084 368.344 70.9879 369.691 69.9469C371.1 68.906 371.804 67.8038 371.804 66.6403C371.804 65.5381 370.793 64.3441 368.773 63.0582C366.752 61.7723 364.548 60.5476 362.16 59.3842ZM395.635 84V21.542H412.351V84H395.635ZM473.089 47.9948V80.6016C470.639 82.0712 467.241 83.204 462.893 84C458.607 84.796 454.872 85.1941 451.687 85.1941C441.523 85.1941 433.715 82.3773 428.266 76.7438C422.877 71.1104 420.183 63.2113 420.183 53.0465C420.183 42.8206 423.214 34.8296 429.276 29.0737C435.338 23.2565 442.992 20.3479 452.239 20.3479C455.361 20.3479 458.882 20.8072 462.801 21.7257C466.781 22.583 469.996 23.8382 472.446 25.4915L467.486 36.7891C464.179 35.6257 461.362 34.8909 459.035 34.5847C456.709 34.2173 454.504 34.0336 452.422 34.0336C448.687 34.0336 445.258 35.595 442.135 38.7179C439.012 41.8408 437.451 46.5864 437.451 52.9547C437.451 59.6904 438.92 64.4666 441.86 67.2833C444.799 70.1 448.228 71.5084 452.147 71.5084C453.004 71.5084 453.922 71.4778 454.902 71.4165C455.943 71.2941 456.984 71.141 458.025 70.9573V60.2109H447.279L445.809 47.9948H473.089ZM482.713 84V21.542H498.235L522.3 55.4346V21.542H539.017V84H523.402L499.429 51.1177V84H482.713ZM605.852 59.2923V21.542H622.569V60.119C622.569 68.263 619.966 74.5088 614.761 78.8564C609.618 83.1427 602.882 85.2859 594.554 85.2859C586.227 85.2859 579.46 83.1427 574.256 78.8564C569.112 74.5088 566.54 68.263 566.54 60.119V21.542H583.257V59.2923C583.257 63.2113 584.298 66.2117 586.38 68.2936C588.523 70.3143 591.248 71.3247 594.554 71.3247C597.861 71.3247 600.555 70.3143 602.637 68.2936C604.78 66.2117 605.852 63.2113 605.852 59.2923ZM632.256 84V21.542H658.525C665.444 21.542 671.445 23.4096 676.528 27.1448C681.671 30.8801 684.243 36.5135 684.243 44.0452C684.243 51.5157 681.518 57.0267 676.068 60.5782C670.619 64.0685 664.526 65.8137 657.79 65.8137H648.973V84H632.256ZM657.974 34.6766H648.973V52.6791H658.158C660.729 52.6791 662.842 51.8525 664.495 50.1992C666.149 48.5459 666.975 46.4946 666.975 44.0452C666.975 41.2897 666.179 39.0547 664.587 37.3402C662.995 35.5644 660.791 34.6766 657.974 34.6766ZM409.825 150.384C405.661 148.302 401.497 145.608 397.333 142.301C393.169 138.934 391.087 134.586 391.087 129.259C391.149 124.115 393.261 119.859 397.425 116.492C401.589 113.062 407.222 111.348 414.325 111.348C417.448 111.348 420.663 111.807 423.97 112.726C427.337 113.583 430.246 114.838 432.695 116.492L427.735 127.789C424.429 126.626 421.918 125.891 420.204 125.585C418.489 125.217 416.591 125.034 414.509 125.034C412.611 125.034 411.111 125.493 410.008 126.411C408.906 127.269 408.355 128.279 408.355 129.442C408.355 130.79 409.274 131.984 411.111 133.025C413.009 134.004 415.244 135.168 417.816 136.515C422.224 138.78 426.48 141.628 430.583 145.057C434.685 148.486 436.737 152.742 436.737 157.824C436.737 163.09 434.502 167.468 430.032 170.959C425.623 174.449 419.561 176.194 411.845 176.194C408.661 176.194 405.048 175.735 401.007 174.816C397.027 173.837 393.812 172.612 391.363 171.142L396.874 158.559C398.466 159.539 400.701 160.457 403.579 161.314C406.518 162.11 409.121 162.508 411.386 162.508C414.019 162.508 416.009 161.988 417.356 160.947C418.765 159.906 419.469 158.804 419.469 157.64C419.469 156.538 418.459 155.344 416.438 154.058C414.417 152.772 412.213 151.548 409.825 150.384ZM443.3 175V112.542H484.724L486.286 125.677H460.016V137.066H479.213L480.775 150.2H460.016V161.865H487.48L489.041 175H443.3ZM507.86 175V125.677H489.49V112.542H542.947L544.508 125.677H524.577V175H507.86ZM605.852 150.292V112.542H622.569V151.119C622.569 159.263 619.966 165.509 614.761 169.856C609.618 174.143 602.882 176.286 594.554 176.286C586.227 176.286 579.46 174.143 574.256 169.856C569.112 165.509 566.54 159.263 566.54 151.119V112.542H583.257V150.292C583.257 154.211 584.298 157.212 586.38 159.294C588.523 161.314 591.248 162.325 594.554 162.325C597.861 162.325 600.555 161.314 602.637 159.294C604.78 157.212 605.852 154.211 605.852 150.292ZM632.256 175V112.542H658.525C665.444 112.542 671.445 114.41 676.528 118.145C681.671 121.88 684.243 127.514 684.243 135.045C684.243 142.516 681.518 148.027 676.068 151.578C670.619 155.069 664.526 156.814 657.79 156.814H648.973V175H632.256ZM657.974 125.677H648.973V143.679H658.158C660.729 143.679 662.842 142.852 664.495 141.199C666.149 139.546 666.975 137.495 666.975 135.045C666.975 132.29 666.179 130.055 664.587 128.34C662.995 126.564 660.791 125.677 657.974 125.677Z" fill="black" fill-opacity="0.22"/>
<path d="M10.1005 290V199.402H70.1886L72.4535 218.454H34.3489V234.975H62.1946L64.4595 254.027H34.3489V270.948H74.1855L76.4505 290H10.1005ZM85.0961 290V199.402H107.612L142.519 248.565V199.402H166.768V290H144.118L109.344 242.303V290H85.0961ZM183.812 261.088V199.402H208.061V268.15C208.061 274.9 206.151 280.052 202.332 283.605C198.601 287.158 192.028 290.444 182.613 293.464L172.754 274.279C177.639 272.324 180.704 270.237 181.947 268.017C183.191 265.796 183.812 263.487 183.812 261.088ZM218.079 245.1C218.079 231.155 222.032 219.742 229.937 210.86C237.842 201.977 248.59 197.536 262.179 197.536C276.924 197.536 287.982 202.066 295.354 211.126C302.727 220.186 306.413 231.2 306.413 244.168C306.413 258.202 302.505 269.66 294.688 278.542C286.872 287.424 276.036 291.865 262.179 291.865C247.701 291.865 236.732 287.335 229.271 278.275C221.81 269.127 218.079 258.068 218.079 245.1ZM242.994 244.967C242.994 252.606 244.459 258.957 247.39 264.02C250.322 269.082 255.207 271.614 262.046 271.614C268.264 271.614 273.06 269.349 276.435 264.819C279.811 260.2 281.498 253.317 281.498 244.168C281.498 236.618 279.988 230.356 276.968 225.382C274.037 220.319 269.196 217.788 262.446 217.788C256.406 217.788 251.654 220.275 248.19 225.249C244.726 230.223 242.994 236.796 242.994 244.967ZM340.542 290V254.294L309.765 201.8L334.946 199.402L352.533 232.044L371.319 199.402H396.234L364.791 254.56V290H340.542ZM494.516 290H429.498V199.402H453.746V270.948H492.251L494.516 290ZM501.891 290V199.402H526.14V290H501.891ZM595.856 255.759H565.745V290H541.497V199.535H600.253L602.518 218.587H565.745V236.707H593.591L595.856 255.759ZM609.857 290V199.402H669.945L672.21 218.454H634.105V234.975H661.951L664.216 254.027H634.105V270.948H673.942L676.207 290H609.857Z" fill="black" fill-opacity="0.22"/>
</svg>
